{
.appVersion = "1274";
DisplayStrings = (
"ABCDEFGHIJKLMNOPQRSTUVWXYZ\012ABCDEFGHIJKLMNOPQRSTUVWXYZ\012ABCDEFGHIJKLMNOPQRSTUVWXYZ\012abcdefghijklmnopqrstuvwxyz.,-+\012abcdefghijklmnopqrstuvwxyz.,-+\012abcdefghijklmnopqrstuvwxyz.,-+\012\012/zero.lf/one.lf/two.lf/three.lf/four.lf/five.lf/six.lf/seven.lf/eight.lf/nine.lf \012/zero.lf/one.lf/two.lf/three.lf/four.lf/five.lf/six.lf/seven.lf/eight.lf/nine.lf \012/zero.lf/one.lf/two.lf/three.lf/four.lf/five.lf/six.lf/seven.lf/eight.lf/nine.lf"
);
copyright = "Copyright © 2019 by Coji Morishita. All rights reserved.";
customParameters = (
{
name = vendorID;
value = "M+";
},
{
name = ROS;
value = "Adobe-Identity-0";
},
{
name = "Enforce Compatibility Check";
value = 1;
},
{
name = Axes;
value = (
{
Name = Weight;
Tag = wght;
}
);
},
{
name = "Use Typo Metrics";
value = 1;
}
);
date = "2019-12-03 09:19:53 +0000";
designer = "Coji Morishita";
designerURL = "http://www.underforest.com";
familyName = Mplus;
fontMaster = (
{
ascender = 860;
capHeight = 730;
custom = Thin;
descender = -140;
iconName = Light_SemiExtended;
id = "D65C9A1E-0FCA-4B2D-8EDF-9F36CA9182A1";
userData = {
GSOffsetHorizontal = -20;
GSOffsetProportional = 1;
GSOffsetVertical = 10;
};
xHeight = 520;
},
{
ascender = 860;
capHeight = 730;
custom = Medium;
descender = -140;
iconName = SemiExtended;
id = "9527F797-22C1-480E-A1FE-2CDBEBE1FD4C";
userData = {
GSOffsetHorizontal = 0;
GSOffsetVertical = 10;
};
weightValue = 500;
xHeight = 520;
},
{
ascender = 860;
capHeight = 730;
custom = Black;
descender = -140;
iconName = Bold_SemiExtended;
id = "9E6B41AB-2970-4C41-8B35-4DBE0D296A43";
userData = {
GSOffsetHorizontal = -205;
GSOffsetProportional = 1;
GSOffsetVertical = 10;
};
weightValue = 900;
xHeight = 520;
}
);
glyphs = (
{
glyphname = A;
lastChange = "2019-12-16 15:02:24 +0000";
layers = (
{
layerId = "D65C9A1E-0FCA-4B2D-8EDF-9F36CA9182A1";
leftMetricsKey = "=H*.2";
paths = (
{
closed = 1;
nodes = (
"39 0 LINE",
"321 711 LINE",
"323 711 LINE",
"605 0 LINE",
"627 0 LINE",
"337 730 LINE",
"307 730 LINE",
"17 0 LINE"
);
},
{
closed = 1;
nodes = (
"522 237 LINE",
"522 257 LINE",
"122 257 LINE",
"122 237 LINE"
);
}
);
width = 644;
},
{
layerId = "9527F797-22C1-480E-A1FE-2CDBEBE1FD4C";
paths = (
{
closed = 1;
nodes = (
"132 0 LINE",
"335 636 LINE",
"337 636 LINE",
"540 0 LINE",
"661 0 LINE",
"411 730 LINE",
"261 730 LINE",
"11 0 LINE"
);
},
{
closed = 1;
nodes = (
"526 183 LINE",
"526 283 LINE",
"146 283 LINE",
"146 183 LINE"
);
}
);
width = 672;
},
{
layerId = "9E6B41AB-2970-4C41-8B35-4DBE0D296A43";
leftMetricsKey = "=H*.1";
paths = (
{
closed = 1;
nodes = (
"227 0 LINE",
"351 560 LINE",
"353 560 LINE",
"477 0 LINE",
"697 0 LINE",
"487 730 LINE",
"217 730 LINE",
"7 0 LINE"
);
},
{
closed = 1;
nodes = (
"532 135 LINE",
"532 300 LINE",
"172 300 LINE",
"172 135 LINE"
);
}
);
width = 704;
}
);
leftKerningGroup = A;
leftMetricsKey = "=H*.15";
rightKerningGroup = A;
rightMetricsKey = "=|";
unicode = 0041;
},
{
glyphname = B;
lastChange = "2019-12-16 12:15:36 +0000";
layers = (
{
layerId = "9527F797-22C1-480E-A1FE-2CDBEBE1FD4C";
rightMetricsKey = "=|*.45";
paths = (
{
closed = 1;
nodes = (
"305 0 LINE SMOOTH",
"513 0 OFFCURVE",
"615 67 OFFCURVE",
"615 205 CURVE SMOOTH",
"615 308 OFFCURVE",
"558 370 OFFCURVE",
"448 387 CURVE",
"448 389 LINE",
"535 407 OFFCURVE",
"585 466 OFFCURVE",
"585 553 CURVE SMOOTH",
"585 672 OFFCURVE",
"492 730 OFFCURVE",
"300 730 CURVE SMOOTH",
"75 730 LINE",
"75 0 LINE"
);
},
{
closed = 1;
nodes = (
"185 632 LINE",
"305 632 LINE SMOOTH",
"425 632 OFFCURVE",
"475 603 OFFCURVE",
"475 534 CURVE SMOOTH",
"475 463 OFFCURVE",
"422 430 OFFCURVE",
"305 430 CURVE SMOOTH",
"130 430 LINE",
"130 335 LINE",
"305 335 LINE SMOOTH",
"441 335 OFFCURVE",
"503 298 OFFCURVE",
"503 216 CURVE SMOOTH",
"503 134 OFFCURVE",
"442 98 OFFCURVE",
"305 98 CURVE SMOOTH",
"185 98 LINE"
);
}
);
width = 649;
},
{
layerId = "9E6B41AB-2970-4C41-8B35-4DBE0D296A43";
rightMetricsKey = "=|*.5";
paths = (
{
closed = 1;
nodes = (
"325 0 LINE SMOOTH",
"533 0 OFFCURVE",
"645 73 OFFCURVE",
"645 210 CURVE SMOOTH",
"645 310 OFFCURVE",
"586 370 OFFCURVE",
"475 384 CURVE",
"475 386 LINE",
"569 400 OFFCURVE",
"625 461 OFFCURVE",
"625 550 CURVE SMOOTH",
"625 668 OFFCURVE",
"518 730 OFFCURVE",
"315 730 CURVE SMOOTH",
"65 730 LINE",
"65 0 LINE"
);
},
{
closed = 1;
nodes = (
"265 575 LINE",
"325 575 LINE SMOOTH",
"398 575 OFFCURVE",
"425 558 OFFCURVE",
"425 512 CURVE SMOOTH",
"425 466 OFFCURVE",
"399 450 OFFCURVE",
"325 450 CURVE SMOOTH",
"165 450 LINE",
"165 300 LINE",
"325 300 LINE SMOOTH",
"405 300 OFFCURVE",
"440 278 OFFCURVE",
"440 228 CURVE SMOOTH",
"440 178 OFFCURVE",
"404 155 OFFCURVE",
"325 155 CURVE SMOOTH",
"265 155 LINE"
);
}
);
width = 678;
},
{
layerId = "D65C9A1E-0FCA-4B2D-8EDF-9F36CA9182A1";
rightMetricsKey = "=|*.4";
paths = (
{
closed = 1;
nodes = (
"285 0 LINE SMOOTH",
"489 0 OFFCURVE",
"585 63 OFFCURVE",
"585 200 CURVE SMOOTH",
"585 308 OFFCURVE",
"526 369 OFFCURVE",
"401 390 CURVE",
"401 392 LINE",
"497 414 OFFCURVE",
"545 467 OFFCURVE",
"545 555 CURVE SMOOTH",
"545 673 OFFCURVE",
"458 730 OFFCURVE",
"285 730 CURVE SMOOTH",
"85 730 LINE",
"85 0 LINE"
);
},
{
closed = 1;
nodes = (
"105 710 LINE",
"285 710 LINE SMOOTH",
"448 710 OFFCURVE",
"525 660 OFFCURVE",
"525 555 CURVE SMOOTH",
"525 450 OFFCURVE",
"448 400 OFFCURVE",
"285 400 CURVE SMOOTH",
"95 400 LINE",
"95 380 LINE",
"285 380 LINE SMOOTH",
"478 380 OFFCURVE",
"565 324 OFFCURVE",
"565 200 CURVE SMOOTH",
"565 76 OFFCURVE",
"478 20 OFFCURVE",
"285 20 CURVE SMOOTH",
"105 20 LINE"
);
}
);
width = 619;
}
);
leftKerningGroup = H;
leftMetricsKey = "=H";
rightKerningGroup = B;
rightMetricsKey = "=|*.5";
unicode = 0042;
},
{
glyphname = C;
lastChange = "2019-12-14 13:29:12 +0000";
layers = (
{
layerId = "D65C9A1E-0FCA-4B2D-8EDF-9F36CA9182A1";
paths = (
{
closed = 1;
nodes = (
"481 -10 OFFCURVE",
"558 12 OFFCURVE",
"622 55 CURVE",
"611 72 LINE",
"550 31 OFFCURVE",
"478 10 OFFCURVE",
"398 10 CURVE SMOOTH",
"193 10 OFFCURVE",
"62 149 OFFCURVE",
"62 365 CURVE SMOOTH",
"62 581 OFFCURVE",
"194 720 OFFCURVE",
"398 720 CURVE SMOOTH",
"478 720 OFFCURVE",
"550 699 OFFCURVE",
"611 658 CURVE",
"622 675 LINE",
"558 718 OFFCURVE",
"481 740 OFFCURVE",
"398 740 CURVE SMOOTH",
"183 740 OFFCURVE",
"42 592 OFFCURVE",
"42 365 CURVE SMOOTH",
"42 138 OFFCURVE",
"182 -10 OFFCURVE",
"398 -10 CURVE SMOOTH"
);
}
);
width = 673;
},
{
layerId = "9527F797-22C1-480E-A1FE-2CDBEBE1FD4C";
paths = (
{
closed = 1;
nodes = (
"490 -10 OFFCURVE",
"572 12 OFFCURVE",
"640 56 CURVE",
"594 145 LINE",
"536 109 OFFCURVE",
"473 90 OFFCURVE",
"405 90 CURVE SMOOTH",
"246 90 OFFCURVE",
"150 194 OFFCURVE",
"150 365 CURVE SMOOTH",
"150 536 OFFCURVE",
"246 640 OFFCURVE",
"405 640 CURVE SMOOTH",
"473 640 OFFCURVE",
"536 621 OFFCURVE",
"594 585 CURVE",
"640 674 LINE",
"572 718 OFFCURVE",
"490 740 OFFCURVE",
"400 740 CURVE SMOOTH",
"173 740 OFFCURVE",
"37 599 OFFCURVE",
"37 365 CURVE SMOOTH",
"37 131 OFFCURVE",
"173 -10 OFFCURVE",
"400 -10 CURVE SMOOTH"
);
}
);
width = 685;
},
{
layerId = "9E6B41AB-2970-4C41-8B35-4DBE0D296A43";
paths = (
{
closed = 1;
nodes = (
"498 -10 OFFCURVE",
"583 12 OFFCURVE",
"657 57 CURVE",
"577 211 LINE",
"516 176 OFFCURVE",
"465 160 OFFCURVE",
"412 160 CURVE SMOOTH",
"299 160 OFFCURVE",
"237 233 OFFCURVE",
"237 365 CURVE SMOOTH",
"237 497 OFFCURVE",
"299 570 OFFCURVE",
"412 570 CURVE SMOOTH",
"465 570 OFFCURVE",
"516 554 OFFCURVE",
"577 519 CURVE",
"657 673 LINE",
"583 718 OFFCURVE",
"498 740 OFFCURVE",
"402 740 CURVE SMOOTH",
"164 740 OFFCURVE",
"32 606 OFFCURVE",
"32 365 CURVE SMOOTH",
"32 124 OFFCURVE",
"164 -10 OFFCURVE",
"402 -10 CURVE SMOOTH"
);
}
);
width = 696;
}
);
leftKerningGroup = O;
leftMetricsKey = "=O";
rightKerningGroup = C;
rightMetricsKey = "=H*.6";
unicode = 0043;
},
{
glyphname = D;
lastChange = "2019-12-14 13:30:42 +0000";
layers = (
{
layerId = "D65C9A1E-0FCA-4B2D-8EDF-9F36CA9182A1";
paths = (
{
closed = 1;
nodes = (
"265 0 LINE SMOOTH",
"507 0 OFFCURVE",
"635 126 OFFCURVE",
"635 365 CURVE SMOOTH",
"635 604 OFFCURVE",
"507 730 OFFCURVE",
"265 730 CURVE SMOOTH",
"85 730 LINE",
"85 0 LINE"
);
},
{
closed = 1;
nodes = (
"105 710 LINE",
"265 710 LINE SMOOTH",
"497 710 OFFCURVE",
"615 593 OFFCURVE",
"615 365 CURVE SMOOTH",
"615 137 OFFCURVE",
"497 20 OFFCURVE",
"265 20 CURVE SMOOTH",
"105 20 LINE"
);
}
);
width = 677;
},
{
layerId = "9527F797-22C1-480E-A1FE-2CDBEBE1FD4C";
paths = (
{
closed = 1;
nodes = (
"280 0 LINE SMOOTH",
"531 0 OFFCURVE",
"650 117 OFFCURVE",
"650 365 CURVE SMOOTH",
"650 613 OFFCURVE",
"531 730 OFFCURVE",
"280 730 CURVE SMOOTH",
"75 730 LINE",
"75 0 LINE"
);
},
{
closed = 1;
nodes = (
"185 630 LINE",
"287 630 LINE SMOOTH",
"464 630 OFFCURVE",
"538 552 OFFCURVE",
"538 365 CURVE SMOOTH",
"538 178 OFFCURVE",
"464 100 OFFCURVE",
"287 100 CURVE SMOOTH",
"185 100 LINE"
);
}
);
width = 687;
},
{
layerId = "9E6B41AB-2970-4C41-8B35-4DBE0D296A43";
paths = (
{
closed = 1;
nodes = (
"295 0 LINE SMOOTH",
"554 0 OFFCURVE",
"665 109 OFFCURVE",
"665 365 CURVE SMOOTH",
"665 621 OFFCURVE",
"554 730 OFFCURVE",
"295 730 CURVE",
"65 730 LINE",
"65 0 LINE"
);
},
{
closed = 1;
nodes = (
"265 570 LINE",
"308 570 LINE SMOOTH",
"426 570 OFFCURVE",
"460 524 OFFCURVE",
"460 365 CURVE SMOOTH",
"460 206 OFFCURVE",
"426 160 OFFCURVE",
"308 160 CURVE SMOOTH",
"265 160 LINE"
);
}
);
width = 697;
}
);
leftKerningGroup = H;
leftMetricsKey = "=H";
rightKerningGroup = O;
rightMetricsKey = "=O";
unicode = 0044;
},
{
glyphname = E;
lastChange = "2019-12-16 11:49:18 +0000";
layers = (
{
layerId = "D65C9A1E-0FCA-4B2D-8EDF-9F36CA9182A1";
rightMetricsKey = "=H*.75";
paths = (
{
closed = 1;
nodes = (
"525 0 LINE",
"525 20 LINE",
"105 20 LINE",
"105 380 LINE",
"505 380 LINE",
"505 400 LINE",
"105 400 LINE",
"105 710 LINE",
"525 710 LINE",
"525 730 LINE",
"85 730 LINE",
"85 0 LINE"
);
}
);
width = 589;
},
{
layerId = "9527F797-22C1-480E-A1FE-2CDBEBE1FD4C";
rightMetricsKey = "=H*.8";
paths = (
{
closed = 1;
nodes = (
"540 0 LINE",
"540 98 LINE",
"185 98 LINE",
"185 335 LINE",
"520 335 LINE",
"520 430 LINE",
"185 430 LINE",
"185 632 LINE",
"540 632 LINE",
"540 730 LINE",
"75 730 LINE",
"75 0 LINE"
);
}
);
width = 600;
},
{
layerId = "9E6B41AB-2970-4C41-8B35-4DBE0D296A43";
rightMetricsKey = "=H*.85";
paths = (
{
closed = 1;
nodes = (
"555 0 LINE",
"555 160 LINE",
"265 160 LINE",
"265 298 LINE",
"535 298 LINE",
"535 453 LINE",
"265 453 LINE",
"265 570 LINE",
"555 570 LINE",
"555 730 LINE",
"65 730 LINE",
"65 0 LINE"
);
}
);
width = 610;
}
);
leftKerningGroup = H;
leftMetricsKey = "=H";
rightKerningGroup = E;
rightMetricsKey = "=H*.85";
unicode = 0045;
},
{
glyphname = F;
lastChange = "2019-12-16 11:48:31 +0000";
layers = (
{
layerId = "D65C9A1E-0FCA-4B2D-8EDF-9F36CA9182A1";
rightMetricsKey = "=H*.55";
paths = (
{
closed = 1;
nodes = (
"105 0 LINE",
"105 380 LINE",
"505 380 LINE",
"505 400 LINE",
"105 400 LINE",
"105 710 LINE",
"525 710 LINE",
"525 730 LINE",
"85 730 LINE",
"85 0 LINE"
);
}
);
width = 572;
},
{
layerId = "9527F797-22C1-480E-A1FE-2CDBEBE1FD4C";
rightMetricsKey = "=H*.65";
paths = (
{
closed = 1;
nodes = (
"185 0 LINE",
"185 317 LINE",
"520 317 LINE",
"520 415 LINE",
"185 415 LINE",
"185 630 LINE",
"540 630 LINE",
"540 730 LINE",
"75 730 LINE",
"75 0 LINE"
);
}
);
width = 589;
},
{
layerId = "9E6B41AB-2970-4C41-8B35-4DBE0D296A43";
rightMetricsKey = "=H*.75";
paths = (
{
closed = 1;
nodes = (
"265 0 LINE",
"265 270 LINE",
"535 270 LINE",
"535 430 LINE",
"265 430 LINE",
"265 565 LINE",
"555 565 LINE",
"555 730 LINE",
"65 730 LINE",
"65 0 LINE"
);
}
);
width = 604;
}
);
leftKerningGroup = H;
leftMetricsKey = "=H";
rightKerningGroup = F;
rightMetricsKey = "=H*.75";
unicode = 0046;
},
{
glyphname = G;
lastChange = "2019-12-14 13:35:57 +0000";
layers = (
{
layerId = "D65C9A1E-0FCA-4B2D-8EDF-9F36CA9182A1";
paths = (
{
closed = 1;
nodes = (
"518 -10 OFFCURVE",
"622 11 OFFCURVE",
"692 44 CURVE",
"692 400 LINE",
"351 400 LINE",
"351 380 LINE",
"672 380 LINE",
"672 45 LINE",
"683 62 LINE",
"616 30 OFFCURVE",
"515 10 OFFCURVE",
"426 10 CURVE SMOOTH",
"198 10 OFFCURVE",
"62 142 OFFCURVE",
"62 365 CURVE SMOOTH",
"62 588 OFFCURVE",
"198 720 OFFCURVE",
"426 720 CURVE SMOOTH",
"513 720 OFFCURVE",
"590 701 OFFCURVE",
"655 663 CURVE",
"665 680 LINE",
"597 720 OFFCURVE",
"516 740 OFFCURVE",
"426 740 CURVE SMOOTH",
"187 740 OFFCURVE",
"42 599 OFFCURVE",
"42 365 CURVE SMOOTH",
"42 131 OFFCURVE",
"187 -10 OFFCURVE",
"426 -10 CURVE SMOOTH"
);
}
);
width = 764;
},
{
layerId = "9527F797-22C1-480E-A1FE-2CDBEBE1FD4C";
paths = (
{
closed = 1;
nodes = (
"528 -10 OFFCURVE",
"629 11 OFFCURVE",
"702 47 CURVE",
"702 427 LINE",
"362 427 LINE",
"362 332 LINE",
"592 332 LINE",
"592 83 LINE",
"613 125 LINE",
"564 102 OFFCURVE",
"495 88 OFFCURVE",
"429 88 CURVE SMOOTH",
"250 88 OFFCURVE",
"150 187 OFFCURVE",
"150 365 CURVE SMOOTH",
"150 543 OFFCURVE",
"250 642 OFFCURVE",
"429 642 CURVE SMOOTH",
"504 642 OFFCURVE",
"573 624 OFFCURVE",
"632 591 CURVE",
"676 677 LINE",
"610 719 OFFCURVE",
"526 740 OFFCURVE",
"429 740 CURVE SMOOTH",
"184 740 OFFCURVE",
"37 600 OFFCURVE",
"37 365 CURVE SMOOTH",
"37 130 OFFCURVE",
"184 -10 OFFCURVE",
"429 -10 CURVE SMOOTH"
);
}
);
width = 766;
},
{
layerId = "9E6B41AB-2970-4C41-8B35-4DBE0D296A43";
paths = (
{
closed = 1;
nodes = (
"538 -10 OFFCURVE",
"636 11 OFFCURVE",
"712 50 CURVE",
"712 447 LINE",
"372 447 LINE",
"372 292 LINE",
"512 292 LINE",
"512 121 LINE",
"542 177 LINE",
"506 162 OFFCURVE",
"473 155 OFFCURVE",
"432 155 CURVE SMOOTH",
"302 155 OFFCURVE",
"237 226 OFFCURVE",
"237 365 CURVE SMOOTH",
"237 504 OFFCURVE",
"302 575 OFFCURVE",
"432 575 CURVE SMOOTH",
"492 575 OFFCURVE",
"551 560 OFFCURVE",
"609 528 CURVE",
"687 674 LINE",
"622 717 OFFCURVE",
"535 740 OFFCURVE",
"432 740 CURVE SMOOTH",
"180 740 OFFCURVE",
"32 601 OFFCURVE",
"32 365 CURVE SMOOTH",
"32 129 OFFCURVE",
"180 -10 OFFCURVE",
"432 -10 CURVE SMOOTH"
);
}
);
width = 767;
}
);
leftKerningGroup = O;
leftMetricsKey = "=O";
rightKerningGroup = G;
rightMetricsKey = "=H*.85";
unicode = 0047;
},
{
glyphname = H;
lastChange = "2019-12-14 13:11:34 +0000";
layers = (
{
layerId = "D65C9A1E-0FCA-4B2D-8EDF-9F36CA9182A1";
paths = (
{
closed = 1;
nodes = (
"625 0 LINE",
"625 730 LINE",
"605 730 LINE",
"605 0 LINE"
);
},
{
closed = 1;
nodes = (
"105 0 LINE",
"105 730 LINE",
"85 730 LINE",
"85 0 LINE"
);
},
{
closed = 1;
nodes = (
"615 380 LINE",
"615 400 LINE",
"95 400 LINE",
"95 380 LINE"
);
}
);
width = 710;
},
{
layerId = "9527F797-22C1-480E-A1FE-2CDBEBE1FD4C";
paths = (
{
closed = 1;
nodes = (
"645 0 LINE",
"645 730 LINE",
"535 730 LINE",
"535 0 LINE"
);
},
{
closed = 1;
nodes = (
"185 0 LINE",
"185 730 LINE",
"75 730 LINE",
"75 0 LINE"
);
},
{
closed = 1;
nodes = (
"590 335 LINE",
"590 435 LINE",
"130 435 LINE",
"130 335 LINE"
);
}
);
width = 720;
},
{
layerId = "9E6B41AB-2970-4C41-8B35-4DBE0D296A43";
paths = (
{
closed = 1;
nodes = (
"665 0 LINE",
"665 730 LINE",
"465 730 LINE",
"465 0 LINE"
);
},
{
closed = 1;
nodes = (
"265 0 LINE",
"265 730 LINE",
"65 730 LINE",
"65 0 LINE"
);
},
{
closed = 1;
nodes = (
"565 295 LINE",
"565 465 LINE",
"165 465 LINE",
"165 295 LINE"
);
}
);
width = 730;
}
);
leftKerningGroup = H;
rightKerningGroup = H;
rightMetricsKey = "=|";
unicode = 0048;
},
{
glyphname = I;
lastChange = "2019-12-14 13:38:50 +0000";
layers = (
{
layerId = "D65C9A1E-0FCA-4B2D-8EDF-9F36CA9182A1";
paths = (
{
closed = 1;
nodes = (
"114 0 LINE",
"114 730 LINE",
"94 730 LINE",
"94 0 LINE"
);
}
);
width = 208;
},
{
layerId = "9527F797-22C1-480E-A1FE-2CDBEBE1FD4C";
paths = (
{
closed = 1;
nodes = (
"198 0 LINE",
"198 730 LINE",
"83 730 LINE",
"83 0 LINE"
);
}
);
width = 281;
},
{
layerId = "9E6B41AB-2970-4C41-8B35-4DBE0D296A43";
paths = (
{
closed = 1;
nodes = (
"282 0 LINE",
"282 730 LINE",
"72 730 LINE",
"72 0 LINE"
);
}
);
width = 354;
}
);
leftKerningGroup = I;
leftMetricsKey = "=H*1.1";
rightKerningGroup = I;
rightMetricsKey = "=|";
unicode = 0049;
},
{
glyphname = J;
lastChange = "2019-12-16 17:45:37 +0000";
layers = (
{
layerId = "D65C9A1E-0FCA-4B2D-8EDF-9F36CA9182A1";
leftMetricsKey = "=H*.15";
paths = (
{
closed = 1;
nodes = (
"384 -10 OFFCURVE",
"463 85 OFFCURVE",
"463 280 CURVE SMOOTH",
"463 730 LINE",
"443 730 LINE",
"443 280 LINE SMOOTH",
"443 96 OFFCURVE",
"372 10 OFFCURVE",
"222 10 CURVE SMOOTH",
"148 10 OFFCURVE",
"75 31 OFFCURVE",
"25 66 CURVE",
"13 50 LINE",
"67 12 OFFCURVE",
"144 -10 OFFCURVE",
"222 -10 CURVE SMOOTH"
);
}
);
width = 540;
},
{
layerId = "9527F797-22C1-480E-A1FE-2CDBEBE1FD4C";
leftMetricsKey = "=H*.1";
paths = (
{
closed = 1;
nodes = (
"412 -10 OFFCURVE",
"495 82 OFFCURVE",
"495 280 CURVE SMOOTH",
"495 730 LINE",
"382 730 LINE",
"382 280 LINE SMOOTH",
"382 150 OFFCURVE",
"331 90 OFFCURVE",
"222 90 CURVE SMOOTH",
"164 90 OFFCURVE",
"103 107 OFFCURVE",
"46 138 CURVE",
"8 45 LINE",
"72 9 OFFCURVE",
"149 -10 OFFCURVE",
"232 -10 CURVE SMOOTH"
);
}
);
width = 563;
},
{
layerId = "9E6B41AB-2970-4C41-8B35-4DBE0D296A43";
leftMetricsKey = "=H*.05";
paths = (
{
closed = 1;
nodes = (
"440 -10 OFFCURVE",
"526 78 OFFCURVE",
"526 280 CURVE SMOOTH",
"526 730 LINE",
"321 730 LINE",
"321 280 LINE SMOOTH",
"321 201 OFFCURVE",
"289 165 OFFCURVE",
"221 165 CURVE SMOOTH",
"182 165 OFFCURVE",
"125 177 OFFCURVE",
"50 206 CURVE",
"3 39 LINE",
"76 6 OFFCURVE",
"165 -10 OFFCURVE",
"241 -10 CURVE SMOOTH"
);
}
);
width = 585;
}
);
leftKerningGroup = J;
leftMetricsKey = "=H*.05";
rightKerningGroup = U;
rightMetricsKey = "=U";
unicode = 004A;
},
{
glyphname = K;
lastChange = "2019-12-16 12:13:52 +0000";
layers = (
{
layerId = "D65C9A1E-0FCA-4B2D-8EDF-9F36CA9182A1";
rightMetricsKey = "=H*.3";
paths = (
{
closed = 1;
nodes = (
"105 0 LINE",
"105 375 LINE",
"107 375 LINE",
"554 0 LINE",
"585 0 LINE",
"120 390 LINE",
"575 730 LINE",
"542 730 LINE",
"107 405 LINE",
"105 405 LINE",
"105 730 LINE",
"85 730 LINE",
"85 0 LINE"
);
}
);
width = 611;
},
{
layerId = "9527F797-22C1-480E-A1FE-2CDBEBE1FD4C";
rightMetricsKey = "=H*.25";
paths = (
{
closed = 1;
nodes = (
"185 0 LINE",
"185 350 LINE",
"187 350 LINE",
"504 0 LINE",
"640 0 LINE",
"288 385 LINE",
"630 730 LINE",
"494 730 LINE",
"187 421 LINE",
"185 421 LINE",
"185 730 LINE",
"75 730 LINE",
"75 0 LINE"
);
}
);
width = 659;
},
{
layerId = "9E6B41AB-2970-4C41-8B35-4DBE0D296A43";
rightMetricsKey = "=H*.2";
paths = (
{
closed = 1;
nodes = (
"265 0 LINE",
"265 340 LINE",
"267 340 LINE",
"465 0 LINE",
"695 0 LINE",
"455 380 LINE",
"685 730 LINE",
"455 730 LINE",
"267 420 LINE",
"265 420 LINE",
"265 730 LINE",
"65 730 LINE",
"65 0 LINE"
);
}
);
width = 708;
}
);
leftKerningGroup = H;
leftMetricsKey = "=H";
rightKerningGroup = K;
rightMetricsKey = "=H*.2";
unicode = 004B;
},
{
glyphname = L;
lastChange = "2019-12-16 12:14:28 +0000";
layers = (
{
layerId = "D65C9A1E-0FCA-4B2D-8EDF-9F36CA9182A1";
rightMetricsKey = "=H*.5";
paths = (
{
closed = 1;
nodes = (
"545 0 LINE",
"545 20 LINE",
"105 20 LINE",
"105 730 LINE",
"85 730 LINE",
"85 0 LINE"
);
}
);
width = 588;
},
{
layerId = "9527F797-22C1-480E-A1FE-2CDBEBE1FD4C";
rightMetricsKey = "=H*.45";
paths = (
{
closed = 1;
nodes = (
"555 0 LINE",
"555 100 LINE",
"188 100 LINE",
"188 730 LINE",
"75 730 LINE",
"75 0 LINE"
);
}
);
width = 589;
},
{
layerId = "9E6B41AB-2970-4C41-8B35-4DBE0D296A43";
rightMetricsKey = "=H*.4";
paths = (
{
closed = 1;
nodes = (
"565 0 LINE",
"565 170 LINE",
"270 170 LINE",
"270 730 LINE",
"65 730 LINE",
"65 0 LINE"
);
}
);
width = 591;
}
);
leftKerningGroup = H;
leftMetricsKey = "=H";
rightKerningGroup = L;
rightMetricsKey = "=H*.4";
unicode = 004C;
},
{
glyphname = M;
lastChange = "2019-12-14 13:51:42 +0000";
layers = (
{
layerId = "D65C9A1E-0FCA-4B2D-8EDF-9F36CA9182A1";
paths = (
{
closed = 1;
nodes = (
"105 0 LINE",
"105 709 LINE",
"107 709 LINE",
"403 155 LINE",
"427 155 LINE",
"723 709 LINE",
"725 709 LINE",
"725 0 LINE",
"745 0 LINE",
"745 730 LINE",
"714 730 LINE",
"416 174 LINE",
"414 174 LINE",
"116 730 LINE",
"85 730 LINE",
"85 0 LINE"
);
}
);
width = 830;
},
{
layerId = "9527F797-22C1-480E-A1FE-2CDBEBE1FD4C";
paths = (
{
closed = 1;
nodes = (
"185 0 LINE",
"185 545 LINE",
"187 545 LINE",
"378 155 LINE",
"482 155 LINE",
"673 545 LINE",
"675 545 LINE",
"675 0 LINE",
"785 0 LINE",
"785 730 LINE",
"645 730 LINE",
"431 293 LINE",
"429 293 LINE",
"215 730 LINE",
"75 730 LINE",
"75 0 LINE"
);
}
);
width = 860;
},
{
layerId = "9E6B41AB-2970-4C41-8B35-4DBE0D296A43";
paths = (
{
closed = 1;
nodes = (
"265 0 LINE",
"265 400 LINE",
"267 400 LINE",
"355 155 LINE",
"535 155 LINE",
"623 400 LINE",
"625 400 LINE",
"625 0 LINE",
"825 0 LINE",
"825 730 LINE",
"577 730 LINE",
"446 360 LINE",
"444 360 LINE",
"313 730 LINE",
"65 730 LINE",
"65 0 LINE"
);
}
);
width = 890;
}
);
leftKerningGroup = H;
leftMetricsKey = "=H";
rightKerningGroup = H;
rightMetricsKey = "=|";
unicode = 004D;
},
{
glyphname = N;
lastChange = "2019-12-14 13:54:01 +0000";
layers = (
{
layerId = "D65C9A1E-0FCA-4B2D-8EDF-9F36CA9182A1";
paths = (
{
closed = 1;
nodes = (
"105 0 LINE",
"105 708 LINE",
"107 708 LINE",
"593 0 LINE",
"625 0 LINE",
"625 730 LINE",
"605 730 LINE",
"605 20 LINE",
"603 20 LINE",
"117 730 LINE",
"85 730 LINE",
"85 0 LINE"
);
}
);
width = 710;
},
{
layerId = "9527F797-22C1-480E-A1FE-2CDBEBE1FD4C";
paths = (
{
closed = 1;
nodes = (
"185 0 LINE",
"185 544 LINE",
"187 544 LINE",
"529 0 LINE",
"650 0 LINE",
"650 730 LINE",
"540 730 LINE",
"540 186 LINE",
"538 186 LINE",
"196 730 LINE",
"75 730 LINE",
"75 0 LINE"
);
}
);
width = 725;
},
{
layerId = "9E6B41AB-2970-4C41-8B35-4DBE0D296A43";
paths = (
{
closed = 1;
nodes = (
"265 0 LINE",
"265 380 LINE",
"267 380 LINE",
"475 0 LINE",
"675 0 LINE",
"675 730 LINE",
"475 730 LINE",
"475 350 LINE",
"473 350 LINE",
"265 730 LINE",
"65 730 LINE",
"65 0 LINE"
);
}
);
width = 740;
}
);
leftKerningGroup = H;
leftMetricsKey = "=H";
rightKerningGroup = H;
rightMetricsKey = "=|";
unicode = 004E;
},
{
glyphname = O;
lastChange = "2019-12-16 15:13:46 +0000";
layers = (
{
layerId = "D65C9A1E-0FCA-4B2D-8EDF-9F36CA9182A1";
paths = (
{
closed = 1;
nodes = (
"617 -10 OFFCURVE",
"762 142 OFFCURVE",
"762 365 CURVE SMOOTH",
"762 588 OFFCURVE",
"617 740 OFFCURVE",
"402 740 CURVE SMOOTH",
"187 740 OFFCURVE",
"42 588 OFFCURVE",
"42 365 CURVE SMOOTH",
"42 142 OFFCURVE",
"187 -10 OFFCURVE",
"402 -10 CURVE SMOOTH"
);
},
{
closed = 1;
nodes = (
"198 10 OFFCURVE",
"62 152 OFFCURVE",
"62 365 CURVE SMOOTH",
"62 578 OFFCURVE",
"198 720 OFFCURVE",
"402 720 CURVE SMOOTH",
"606 720 OFFCURVE",
"742 578 OFFCURVE",
"742 365 CURVE SMOOTH",
"742 152 OFFCURVE",
"606 10 OFFCURVE",
"402 10 CURVE SMOOTH"
);
}
);
width = 804;
},
{
layerId = "9527F797-22C1-480E-A1FE-2CDBEBE1FD4C";
paths = (
{
closed = 1;
nodes = (
"631 -10 OFFCURVE",
"773 136 OFFCURVE",
"773 365 CURVE SMOOTH",
"773 595 OFFCURVE",
"631 740 OFFCURVE",
"405 740 CURVE SMOOTH",
"179 740 OFFCURVE",
"37 595 OFFCURVE",
"37 365 CURVE SMOOTH",
"37 136 OFFCURVE",
"179 -10 OFFCURVE",
"405 -10 CURVE SMOOTH"
);
},
{
closed = 1;
nodes = (
"246 90 OFFCURVE",
"150 193 OFFCURVE",
"150 365 CURVE SMOOTH",
"150 537 OFFCURVE",
"246 640 OFFCURVE",
"405 640 CURVE SMOOTH",
"564 640 OFFCURVE",
"660 537 OFFCURVE",
"660 365 CURVE SMOOTH",
"660 193 OFFCURVE",
"564 90 OFFCURVE",
"405 90 CURVE SMOOTH"
);
}
);
width = 810;
},
{
layerId = "9E6B41AB-2970-4C41-8B35-4DBE0D296A43";
paths = (
{
closed = 1;
nodes = (
"643 -10 OFFCURVE",
"782 129 OFFCURVE",
"782 365 CURVE SMOOTH",
"782 601 OFFCURVE",
"643 740 OFFCURVE",
"407 740 CURVE SMOOTH",
"171 740 OFFCURVE",
"32 601 OFFCURVE",
"32 365 CURVE SMOOTH",
"32 129 OFFCURVE",
"171 -10 OFFCURVE",
"407 -10 CURVE SMOOTH"
);
},
{
closed = 1;
nodes = (
"294 160 OFFCURVE",
"237 229 OFFCURVE",
"237 365 CURVE SMOOTH",
"237 501 OFFCURVE",
"294 570 OFFCURVE",
"407 570 CURVE SMOOTH",
"520 570 OFFCURVE",
"577 501 OFFCURVE",
"577 365 CURVE SMOOTH",
"577 229 OFFCURVE",
"520 160 OFFCURVE",
"407 160 CURVE SMOOTH"
);
}
);
width = 814;
}
);
leftKerningGroup = O;
leftMetricsKey = "=H*.5";
rightKerningGroup = O;
rightMetricsKey = "=|";
unicode = 004F;
},
{
glyphname = P;
lastChange = "2019-12-16 11:50:11 +0000";
layers = (
{
layerId = "D65C9A1E-0FCA-4B2D-8EDF-9F36CA9182A1";
rightMetricsKey = "=H*.3";
paths = (
{
closed = 1;
nodes = (
"105 0 LINE",
"105 710 LINE",
"275 710 LINE SMOOTH",
"466 710 OFFCURVE",
"545 654 OFFCURVE",
"545 520 CURVE SMOOTH",
"545 386 OFFCURVE",
"466 330 OFFCURVE",
"275 330 CURVE SMOOTH",
"95 330 LINE",
"95 310 LINE",
"275 310 LINE SMOOTH",
"477 310 OFFCURVE",
"565 374 OFFCURVE",
"565 520 CURVE SMOOTH",
"565 666 OFFCURVE",
"477 730 OFFCURVE",
"275 730 CURVE SMOOTH",
"85 730 LINE",
"85 0 LINE"
);
}
);
width = 591;
},
{
layerId = "9527F797-22C1-480E-A1FE-2CDBEBE1FD4C";
rightMetricsKey = "=H*.35";
paths = (
{
closed = 1;
nodes = (
"185 0 LINE",
"185 630 LINE",
"290 630 LINE SMOOTH",
"428 630 OFFCURVE",
"488 589 OFFCURVE",
"488 496 CURVE SMOOTH",
"488 403 OFFCURVE",
"428 362 OFFCURVE",
"290 362 CURVE SMOOTH",
"130 362 LINE",
"130 264 LINE",
"305 264 LINE SMOOTH",
"503 264 OFFCURVE",
"600 340 OFFCURVE",
"600 497 CURVE SMOOTH",
"600 656 OFFCURVE",
"500 730 OFFCURVE",
"285 730 CURVE SMOOTH",
"75 730 LINE",
"75 0 LINE"
);
}
);
width = 626;
},
{
layerId = "9E6B41AB-2970-4C41-8B35-4DBE0D296A43";
rightMetricsKey = "=H*.4";
paths = (
{
closed = 1;
nodes = (
"265 0 LINE",
"265 570 LINE",
"305 570 LINE SMOOTH",
"391 570 OFFCURVE",
"430 540 OFFCURVE",
"430 475 CURVE SMOOTH",
"430 410 OFFCURVE",
"391 380 OFFCURVE",
"305 380 CURVE SMOOTH",
"165 380 LINE",
"165 220 LINE",
"335 220 LINE SMOOTH",
"530 220 OFFCURVE",
"635 309 OFFCURVE",
"635 475 CURVE SMOOTH",
"635 647 OFFCURVE",
"524 730 OFFCURVE",
"295 730 CURVE SMOOTH",
"65 730 LINE",
"65 0 LINE"
);
}
);
width = 661;
}
);
leftKerningGroup = H;
leftMetricsKey = "=H";
rightKerningGroup = P;
rightMetricsKey = "=H*.4";
unicode = 0050;
},
{
glyphname = Q;
lastChange = "2019-12-16 12:20:20 +0000";
layers = (
{
layerId = "9527F797-22C1-480E-A1FE-2CDBEBE1FD4C";
rightMetricsKey = "=O-6";
paths = (
{
closed = 1;
nodes = (
"781 -71 LINE",
"726 -11 OFFCURVE",
"644 33 OFFCURVE",
"540 56 CURVE",
"545 18 LINE",
"688 65 OFFCURVE",
"773 192 OFFCURVE",
"773 365 CURVE SMOOTH",
"774 595 OFFCURVE",
"632 740 OFFCURVE",
"405 740 CURVE SMOOTH",
"180 740 OFFCURVE",
"38 595 OFFCURVE",
"37 365 CURVE SMOOTH",
"38 136 OFFCURVE",
"179 -10 OFFCURVE",
"404 -10 CURVE SMOOTH",
"528 -10 OFFCURVE",
"632 -54 OFFCURVE",
"694 -133 CURVE"
);
},
{
closed = 1;
nodes = (
"247 90 OFFCURVE",
"150 194 OFFCURVE",
"150 365 CURVE SMOOTH",
"150 537 OFFCURVE",
"246 640 OFFCURVE",
"405 640 CURVE SMOOTH",
"564 640 OFFCURVE",
"660 537 OFFCURVE",
"660 365 CURVE SMOOTH",
"660 194 OFFCURVE",
"563 90 OFFCURVE",
"405 90 CURVE SMOOTH"
);
}
);
width = 812;
},
{
layerId = "9E6B41AB-2970-4C41-8B35-4DBE0D296A43";
rightMetricsKey = "=O-12";
paths = (
{
closed = 1;
nodes = (
"797 -40 LINE",
"747 25 OFFCURVE",
"670 77 OFFCURVE",
"573 110 CURVE",
"583 32 LINE",
"712 85 OFFCURVE",
"783 203 OFFCURVE",
"782 365 CURVE SMOOTH",
"783 601 OFFCURVE",
"644 740 OFFCURVE",
"407 740 CURVE SMOOTH",
"172 740 OFFCURVE",
"33 601 OFFCURVE",
"32 365 CURVE SMOOTH",
"33 129 OFFCURVE",
"172 -10 OFFCURVE",
"407 -10 CURVE SMOOTH",
"518 -10 OFFCURVE",
"569 -41 OFFCURVE",
"637 -150 CURVE"
);
},
{
closed = 1;
nodes = (
"295 160 OFFCURVE",
"238 229 OFFCURVE",
"237 365 CURVE SMOOTH",
"238 501 OFFCURVE",
"295 570 OFFCURVE",
"407 570 CURVE SMOOTH",
"521 570 OFFCURVE",
"578 501 OFFCURVE",
"577 365 CURVE SMOOTH",
"578 229 OFFCURVE",
"520 160 OFFCURVE",
"407 160 CURVE SMOOTH"
);
}
);
width = 817;
},
{
layerId = "D65C9A1E-0FCA-4B2D-8EDF-9F36CA9182A1";
rightMetricsKey = "=O";
paths = (
{
closed = 1;
nodes = (
"765 -102 LINE",
"705 -46 OFFCURVE",
"618 -11 OFFCURVE",
"507 2 CURVE",
"507 4 LINE",
"662 45 OFFCURVE",
"761 181 OFFCURVE",
"762 365 CURVE SMOOTH",
"763 588 OFFCURVE",
"617 740 OFFCURVE",
"402 740 CURVE SMOOTH",
"187 740 OFFCURVE",
"42 588 OFFCURVE",
"42 365 CURVE SMOOTH",
"42 142 OFFCURVE",
"186 -10 OFFCURVE",
"401 -10 CURVE SMOOTH",
"559 -10 OFFCURVE",
"678 -46 OFFCURVE",
"751 -116 CURVE"
);
},
{
closed = 1;
nodes = (
"198 10 OFFCURVE",
"62 152 OFFCURVE",
"62 365 CURVE SMOOTH",
"62 578 OFFCURVE",
"198 720 OFFCURVE",
"402 720 CURVE SMOOTH",
"605 720 OFFCURVE",
"742 578 OFFCURVE",
"742 365 CURVE SMOOTH",
"742 152 OFFCURVE",
"605 10 OFFCURVE",
"402 10 CURVE SMOOTH"
);
}
);
width = 807;
}
);
leftKerningGroup = O;
leftMetricsKey = "=O";
rightKerningGroup = O;
rightMetricsKey = "=O-12";
unicode = 0051;
},
{
glyphname = R;
lastChange = "2019-12-14 16:10:52 +0000";
layers = (
{
layerId = "D65C9A1E-0FCA-4B2D-8EDF-9F36CA9182A1";
paths = (
{
closed = 1;
nodes = (
"105 0 LINE",
"105 710 LINE",
"275 710 LINE SMOOTH",
"467 710 OFFCURVE",
"545 658 OFFCURVE",
"545 535 CURVE SMOOTH",
"545 412 OFFCURVE",
"467 360 OFFCURVE",
"275 360 CURVE SMOOTH",
"95 360 LINE",
"95 340 LINE",
"275 340 LINE SMOOTH",
"477 340 OFFCURVE",
"565 399 OFFCURVE",
"565 535 CURVE SMOOTH",
"565 671 OFFCURVE",
"477 730 OFFCURVE",
"275 730 CURVE SMOOTH",
"85 730 LINE",
"85 0 LINE"
);
},
{
closed = 1;
nodes = (
"575 0 LINE",
"331 350 LINE",
"307 350 LINE",
"551 0 LINE"
);
}
);
width = 609;
},
{
layerId = "9527F797-22C1-480E-A1FE-2CDBEBE1FD4C";
paths = (
{
closed = 1;
nodes = (
"185 0 LINE",
"185 630 LINE",
"290 630 LINE SMOOTH",
"429 630 OFFCURVE",
"488 594 OFFCURVE",
"488 510 CURVE SMOOTH",
"488 426 OFFCURVE",
"429 390 OFFCURVE",
"290 390 CURVE SMOOTH",
"130 390 LINE",
"130 292 LINE",
"305 292 LINE SMOOTH",
"504 292 OFFCURVE",
"600 364 OFFCURVE",
"600 513 CURVE SMOOTH",
"600 662 OFFCURVE",
"501 730 OFFCURVE",
"285 730 CURVE SMOOTH",
"75 730 LINE",
"75 0 LINE"
);
},
{
closed = 1;
nodes = (
"615 0 LINE",
"408 345 LINE",
"290 345 LINE",
"489 0 LINE"
);
}
);
width = 645;
},
{
layerId = "9E6B41AB-2970-4C41-8B35-4DBE0D296A43";
paths = (
{
closed = 1;
nodes = (
"265 0 LINE",
"265 570 LINE",
"305 570 LINE SMOOTH",
"391 570 OFFCURVE",
"430 544 OFFCURVE",
"430 485 CURVE SMOOTH",
"430 426 OFFCURVE",
"392 400 OFFCURVE",
"305 400 CURVE SMOOTH",
"165 400 LINE",
"165 245 LINE",
"335 245 LINE SMOOTH",
"530 245 OFFCURVE",
"635 331 OFFCURVE",
"635 490 CURVE SMOOTH",
"635 652 OFFCURVE",
"524 730 OFFCURVE",
"295 730 CURVE SMOOTH",
"65 730 LINE",
"65 0 LINE"
);
},
{
closed = 1;
nodes = (
"655 0 LINE",
"485 340 LINE",
"285 340 LINE",
"435 0 LINE"
);
}
);
width = 681;
}
);
leftKerningGroup = H;
leftMetricsKey = "=H";
rightKerningGroup = R;
rightMetricsKey = "=H*.4";
unicode = 0052;
},
{
glyphname = S;
lastChange = "2019-12-16 17:46:04 +0000";
layers = (
{
layerId = "D65C9A1E-0FCA-4B2D-8EDF-9F36CA9182A1";
leftMetricsKey = "=H*.7";
paths = (
{
closed = 1;
nodes = (
"443 -10 OFFCURVE",
"530 60 OFFCURVE",
"530 180 CURVE SMOOTH",
"530 283 OFFCURVE",
"468 340 OFFCURVE",
"298 399 CURVE SMOOTH",
"145 452 OFFCURVE",
"91 500 OFFCURVE",
"91 580 CURVE SMOOTH",
"91 670 OFFCURVE",
"163 720 OFFCURVE",
"295 720 CURVE SMOOTH",
"375 720 OFFCURVE",
"446 701 OFFCURVE",
"509 663 CURVE",
"519 680 LINE",
"453 720 OFFCURVE",
"378 740 OFFCURVE",
"295 740 CURVE SMOOTH",
"152 740 OFFCURVE",
"71 682 OFFCURVE",
"71 580 CURVE SMOOTH",
"71 490 OFFCURVE",
"131 437 OFFCURVE",
"292 381 CURVE SMOOTH",
"454 325 OFFCURVE",
"510 273 OFFCURVE",
"510 180 CURVE SMOOTH",
"510 72 OFFCURVE",
"433 10 OFFCURVE",
"295 10 CURVE SMOOTH",
"211 10 OFFCURVE",
"131 34 OFFCURVE",
"72 76 CURVE",
"59 60 LINE",
"123 15 OFFCURVE",
"207 -10 OFFCURVE",
"295 -10 CURVE SMOOTH"
);
}
);
width = 589;
},
{
layerId = "9527F797-22C1-480E-A1FE-2CDBEBE1FD4C";
leftMetricsKey = "=H*.65";
paths = (
{
closed = 1;
nodes = (
"467 -10 OFFCURVE",
"565 66 OFFCURVE",
"565 198 CURVE SMOOTH",
"565 305 OFFCURVE",
"499 369 OFFCURVE",
"320 433 CURVE SMOOTH",
"213 469 OFFCURVE",
"173 502 OFFCURVE",
"173 553 CURVE SMOOTH",
"173 611 OFFCURVE",
"222 640 OFFCURVE",
"320 640 CURVE SMOOTH",
"394 640 OFFCURVE",
"458 623 OFFCURVE",
"529 586 CURVE",
"552 685 LINE",
"487 721 OFFCURVE",
"404 740 OFFCURVE",
"315 740 CURVE SMOOTH",
"149 740 OFFCURVE",
"58 674 OFFCURVE",
"58 553 CURVE SMOOTH",
"58 448 OFFCURVE",
"125 384 OFFCURVE",
"299 324 CURVE SMOOTH",
"410 286 OFFCURVE",
"450 253 OFFCURVE",
"450 195 CURVE SMOOTH",
"450 128 OFFCURVE",
"396 90 OFFCURVE",
"300 90 CURVE SMOOTH",
"222 90 OFFCURVE",
"142 115 OFFCURVE",
"79 160 CURVE",
"49 62 LINE",
"113 16 OFFCURVE",
"203 -10 OFFCURVE",
"300 -10 CURVE SMOOTH"
);
}
);
width = 614;
},
{
background = {
paths = (
{
closed = 1;
nodes = (
"339 458 LINE",
"353 458 LINE",
"353 438 LINE",
"339 438 LINE"
);
}
);
};
layerId = "9E6B41AB-2970-4C41-8B35-4DBE0D296A43";
leftMetricsKey = "=H*.6";
paths = (
{
closed = 1;
nodes = (
"487 -10 OFFCURVE",
"599 76 OFFCURVE",
"599 215 CURVE SMOOTH",
"599 325 OFFCURVE",
"532 388 OFFCURVE",
"339 458 CURVE SMOOTH",
"276 480 OFFCURVE",
"254 497 OFFCURVE",
"254 525 CURVE SMOOTH",
"254 558 OFFCURVE",
"285 575 OFFCURVE",
"344 575 CURVE SMOOTH",
"414 575 OFFCURVE",
"468 562 OFFCURVE",
"548 525 CURVE",
"584 690 LINE",
"521 721 OFFCURVE",
"426 740 OFFCURVE",
"334 740 CURVE SMOOTH",
"146 740 OFFCURVE",
"44 664 OFFCURVE",
"44 525 CURVE SMOOTH",
"44 408 OFFCURVE",
"115 341 OFFCURVE",
"309 275 CURVE SMOOTH",
"370 254 OFFCURVE",
"389 239 OFFCURVE",
"389 210 CURVE SMOOTH",
"389 174 OFFCURVE",
"359 155 OFFCURVE",
"304 155 CURVE SMOOTH",
"236 155 OFFCURVE",
"151 184 OFFCURVE",
"86 229 CURVE",
"39 64 LINE",
"102 16 OFFCURVE",
"195 -10 OFFCURVE",
"304 -10 CURVE SMOOTH"
);
}
);
width = 638;
}
);
leftKerningGroup = S;
leftMetricsKey = "=H*.6";
rightKerningGroup = S;
rightMetricsKey = "=|";
unicode = 0053;
},
{
glyphname = T;
lastChange = "2019-12-16 14:58:51 +0000";
layers = (
{
layerId = "D65C9A1E-0FCA-4B2D-8EDF-9F36CA9182A1";
leftMetricsKey = "=H*.3";
paths = (
{
closed = 1;
nodes = (
"316 0 LINE",
"316 710 LINE",
"586 710 LINE",
"586 730 LINE",
"26 730 LINE",
"26 710 LINE",
"296 710 LINE",
"296 0 LINE"
);
}
);
width = 612;
},
{
layerId = "9527F797-22C1-480E-A1FE-2CDBEBE1FD4C";
leftMetricsKey = "=H*.35";
paths = (
{
closed = 1;
nodes = (
"372 0 LINE",
"372 630 LINE",
"605 630 LINE",
"605 730 LINE",
"26 730 LINE",
"26 630 LINE",
"259 630 LINE",
"259 0 LINE"
);
}
);
width = 631;
},
{
layerId = "9E6B41AB-2970-4C41-8B35-4DBE0D296A43";
leftMetricsKey = "=H*.4";
paths = (
{
closed = 1;
nodes = (
"427 0 LINE",
"427 560 LINE",
"623 560 LINE",
"623 730 LINE",
"26 730 LINE",
"26 560 LINE",
"222 560 LINE",
"222 0 LINE"
);
}
);
width = 649;
}
);
leftKerningGroup = T;
leftMetricsKey = "=H*0.4";
rightKerningGroup = T;
rightMetricsKey = "=|";
unicode = 0054;
},
{
glyphname = U;
lastChange = "2019-12-16 10:10:23 +0000";
layers = (
{
layerId = "D65C9A1E-0FCA-4B2D-8EDF-9F36CA9182A1";
paths = (
{
closed = 1;
nodes = (
"525 -10 OFFCURVE",
"617 85 OFFCURVE",
"616 270 CURVE SMOOTH",
"616 730 LINE",
"597 730 LINE",
"597 270 LINE SMOOTH",
"597 96 OFFCURVE",
"514 10 OFFCURVE",
"347 10 CURVE SMOOTH",
"180 10 OFFCURVE",
"97 96 OFFCURVE",
"97 270 CURVE SMOOTH",
"97 730 LINE",
"77 730 LINE",
"77 270 LINE SMOOTH",
"77 85 OFFCURVE",
"169 -10 OFFCURVE",
"346 -10 CURVE SMOOTH"
);
}
);
width = 693;
},
{
layerId = "9527F797-22C1-480E-A1FE-2CDBEBE1FD4C";
paths = (
{
closed = 1;
nodes = (
"539 -10 OFFCURVE",
"638 87 OFFCURVE",
"638 270 CURVE SMOOTH",
"638 730 LINE",
"528 730 LINE",
"528 283 LINE SMOOTH",
"528 149 OFFCURVE",
"475 90 OFFCURVE",
"353 90 CURVE SMOOTH",
"231 90 OFFCURVE",
"178 149 OFFCURVE",
"178 283 CURVE SMOOTH",
"178 730 LINE",
"68 730 LINE",
"68 270 LINE SMOOTH",
"68 87 OFFCURVE",
"167 -10 OFFCURVE",
"353 -10 CURVE SMOOTH"
);
}
);
width = 706;
},
{
layerId = "9E6B41AB-2970-4C41-8B35-4DBE0D296A43";
paths = (
{
closed = 1;
nodes = (
"554 -10 OFFCURVE",
"659 88 OFFCURVE",
"659 270 CURVE SMOOTH",
"659 730 LINE",
"459 730 LINE",
"459 295 LINE SMOOTH",
"459 194 OFFCURVE",
"434 160 OFFCURVE",
"359 160 CURVE SMOOTH",
"284 160 OFFCURVE",
"259 194 OFFCURVE",
"259 295 CURVE SMOOTH",
"259 730 LINE",
"59 730 LINE",
"59 270 LINE SMOOTH",
"59 88 OFFCURVE",
"164 -10 OFFCURVE",
"359 -10 CURVE SMOOTH"
);
}
);
width = 718;
}
);
leftKerningGroup = U;
leftMetricsKey = "=H*.9";
rightKerningGroup = U;
rightMetricsKey = "=|";
unicode = 0055;
},
{
glyphname = V;
lastChange = "2019-12-16 14:39:26 +0000";
layers = (
{
layerId = "D65C9A1E-0FCA-4B2D-8EDF-9F36CA9182A1";
paths = (
{
closed = 1;
nodes = (
"337 0 LINE",
"627 730 LINE",
"605 730 LINE",
"323 20 LINE",
"321 20 LINE",
"39 730 LINE",
"17 730 LINE",
"307 0 LINE"
);
}
);
width = 644;
},
{
layerId = "9527F797-22C1-480E-A1FE-2CDBEBE1FD4C";
paths = (
{
closed = 1;
nodes = (
"409 0 LINE",
"661 730 LINE",
"540 730 LINE",
"337 110 LINE",
"335 110 LINE",
"132 730 LINE",
"11 730 LINE",
"264 0 LINE"
);
}
);
width = 672;
},
{
layerId = "9E6B41AB-2970-4C41-8B35-4DBE0D296A43";
paths = (
{
closed = 1;
nodes = (
"482 0 LINE",
"697 730 LINE",
"477 730 LINE",
"353 200 LINE",
"351 200 LINE",
"227 730 LINE",
"7 730 LINE",
"222 0 LINE"
);
}
);
width = 704;
}
);
leftKerningGroup = V;
leftMetricsKey = "=A";
rightKerningGroup = V;
rightMetricsKey = "=|";
unicode = 0056;
},
{
glyphname = W;
lastChange = "2019-12-16 15:05:02 +0000";
layers = (
{
layerId = "D65C9A1E-0FCA-4B2D-8EDF-9F36CA9182A1";
leftMetricsKey = "=V*1.6";
paths = (
{
closed = 1;
nodes = (
"248 0 LINE",
"441 613 LINE",
"443 613 LINE",
"636 0 LINE",
"668 0 LINE",
"857 730 LINE",
"836 730 LINE",
"653 17 LINE",
"651 17 LINE",
"458 630 LINE",
"426 630 LINE",
"233 17 LINE",
"231 17 LINE",
"48 730 LINE",
"27 730 LINE",
"216 0 LINE"
);
}
);
width = 884;
},
{
layerId = "9527F797-22C1-480E-A1FE-2CDBEBE1FD4C";
leftMetricsKey = "=V*2.3";
paths = (
{
closed = 1;
nodes = (
"343 0 LINE",
"462 495 LINE",
"464 495 LINE",
"583 0 LINE",
"737 0 LINE",
"901 730 LINE",
"785 730 LINE",
"662 135 LINE",
"660 135 LINE",
"541 630 LINE",
"385 630 LINE",
"266 135 LINE",
"264 135 LINE",
"141 730 LINE",
"25 730 LINE",
"189 0 LINE"
);
}
);
width = 926;
},
{
layerId = "9E6B41AB-2970-4C41-8B35-4DBE0D296A43";
paths = (
{
closed = 1;
nodes = (
"411 0 LINE",
"480 380 LINE",
"482 380 LINE",
"551 0 LINE",
"791 0 LINE",
"941 730 LINE",
"721 730 LINE",
"667 250 LINE",
"665 250 LINE",
"601 630 LINE",
"361 630 LINE",
"297 250 LINE",
"295 250 LINE",
"241 730 LINE",
"21 730 LINE",
"171 0 LINE"
);
}
);
width = 962;
}
);
leftKerningGroup = W;
leftMetricsKey = "=V*3";
rightKerningGroup = W;
rightMetricsKey = "=|";
unicode = 0057;
},
{
glyphname = X;
lastChange = "2019-12-16 14:52:09 +0000";
layers = (
{
layerId = "D65C9A1E-0FCA-4B2D-8EDF-9F36CA9182A1";
paths = (
{
closed = 1;
nodes = (
"82 0 LINE",
"336 352 LINE",
"338 352 LINE",
"592 0 LINE",
"617 0 LINE",
"349 369 LINE",
"611 730 LINE",
"586 730 LINE",
"338 387 LINE",
"336 387 LINE",
"88 730 LINE",
"63 730 LINE",
"325 369 LINE",
"57 0 LINE"
);
}
);
width = 674;
},
{
layerId = "9527F797-22C1-480E-A1FE-2CDBEBE1FD4C";
paths = (
{
closed = 1;
nodes = (
"167 0 LINE",
"341 304 LINE",
"343 304 LINE",
"517 0 LINE",
"642 0 LINE",
"423 367 LINE",
"639 730 LINE",
"514 730 LINE",
"343 431 LINE",
"341 431 LINE",
"170 730 LINE",
"45 730 LINE",
"261 367 LINE",
"42 0 LINE"
);
}
);
width = 684;
},
{
layerId = "9E6B41AB-2970-4C41-8B35-4DBE0D296A43";
paths = (
{
closed = 1;
nodes = (
"254 0 LINE",
"348 255 LINE",
"350 255 LINE",
"444 0 LINE",
"669 0 LINE",
"499 365 LINE",
"669 730 LINE",
"444 730 LINE",
"350 475 LINE",
"348 475 LINE",
"254 730 LINE",
"29 730 LINE",
"199 365 LINE",
"29 0 LINE"
);
}
);
width = 698;
}
);
leftKerningGroup = X;
leftMetricsKey = "=|K*2.2";
rightKerningGroup = X;
rightMetricsKey = "=|";
unicode = 0058;
},
{
glyphname = Y;
lastChange = "2019-12-16 15:15:58 +0000";
layers = (
{
layerId = "D65C9A1E-0FCA-4B2D-8EDF-9F36CA9182A1";
paths = (
{
closed = 1;
nodes = (
"320 0 LINE",
"320 317 LINE",
"610 730 LINE",
"586 730 LINE",
"311 338 LINE",
"309 338 LINE",
"34 730 LINE",
"10 730 LINE",
"300 317 LINE",
"300 0 LINE"
);
}
);
width = 620;
},
{
layerId = "9527F797-22C1-480E-A1FE-2CDBEBE1FD4C";
paths = (
{
closed = 1;
nodes = (
"384 0 LINE",
"384 294 LINE",
"647 730 LINE",
"521 730 LINE",
"328 396 LINE",
"326 396 LINE",
"133 730 LINE",
"7 730 LINE",
"270 294 LINE",
"270 0 LINE"
);
}
);
width = 654;
},
{
layerId = "9E6B41AB-2970-4C41-8B35-4DBE0D296A43";
paths = (
{
closed = 1;
nodes = (
"449 0 LINE",
"449 270 LINE",
"684 730 LINE",
"464 730 LINE",
"345 440 LINE",
"343 440 LINE",
"224 730 LINE",
"4 730 LINE",
"239 270 LINE",
"239 0 LINE"
);
}
);
width = 688;
}
);
leftKerningGroup = Y;
leftMetricsKey = "=V*.6";
rightKerningGroup = Y;
rightMetricsKey = "=|";
unicode = 0059;
},
{
glyphname = Z;
lastChange = "2019-12-16 15:16:46 +0000";
layers = (
{
layerId = "D65C9A1E-0FCA-4B2D-8EDF-9F36CA9182A1";
paths = (
{
closed = 1;
nodes = (
"568 0 LINE",
"568 20 LINE",
"93 20 LINE",
"93 22 LINE",
"568 710 LINE",
"568 730 LINE",
"68 730 LINE",
"68 710 LINE",
"543 710 LINE",
"543 708 LINE",
"68 20 LINE",
"68 0 LINE"
);
}
);
width = 636;
},
{
layerId = "9527F797-22C1-480E-A1FE-2CDBEBE1FD4C";
paths = (
{
closed = 1;
nodes = (
"580 0 LINE",
"580 100 LINE",
"195 100 LINE",
"195 102 LINE",
"580 630 LINE",
"580 730 LINE",
"60 730 LINE",
"60 630 LINE",
"445 630 LINE",
"445 628 LINE",
"60 100 LINE",
"60 0 LINE"
);
}
);
width = 640;
},
{
layerId = "9E6B41AB-2970-4C41-8B35-4DBE0D296A43";
paths = (
{
closed = 1;
nodes = (
"592 0 LINE",
"592 165 LINE",
"287 165 LINE",
"287 167 LINE",
"592 565 LINE",
"592 730 LINE",
"52 730 LINE",
"52 565 LINE",
"357 565 LINE",
"357 563 LINE",
"52 165 LINE",
"52 0 LINE"
);
}
);
width = 644;
}
);
leftKerningGroup = Z;
leftMetricsKey = "=H*.8";
rightKerningGroup = Z;
rightMetricsKey = "=|";
unicode = 005A;
},
{
glyphname = a;
lastChange = "2019-12-16 14:53:04 +0000";
layers = (
{
layerId = "D65C9A1E-0FCA-4B2D-8EDF-9F36CA9182A1";
paths = (
{
closed = 1;
nodes = (
"440 0 LINE",
"440 330 LINE SMOOTH",
"440 474 OFFCURVE",
"389 530 OFFCURVE",
"258 530 CURVE SMOOTH",
"186 530 OFFCURVE",
"116 513 OFFCURVE",
"51 480 CURVE",
"60 462 LINE",
"123 494 OFFCURVE",
"189 510 OFFCURVE",
"258 510 CURVE SMOOTH",
"377 510 OFFCURVE",
"420 463 OFFCURVE",
"420 330 CURVE SMOOTH",
"420 118 LINE",
"420 118 LINE",
"420 0 LINE"
);
},
{
closed = 1;
nodes = (
"304 -10 OFFCURVE",
"382 41 OFFCURVE",
"418 118 CURVE",
"430 118 LINE",
"430 210 LINE",
"420 210 LINE",
"420 96 OFFCURVE",
"328 10 OFFCURVE",
"206 10 CURVE SMOOTH",
"112 10 OFFCURVE",
"51 61 OFFCURVE",
"52 140 CURVE SMOOTH",
"51 246 OFFCURVE",
"160 305 OFFCURVE",
"355 305 CURVE SMOOTH",
"430 305 LINE",
"430 325 LINE",
"355 325 LINE SMOOTH",
"149 325 OFFCURVE",
"31 259 OFFCURVE",
"31 140 CURVE SMOOTH",
"31 50 OFFCURVE",
"101 -10 OFFCURVE",
"206 -10 CURVE SMOOTH"
);
}
);
width = 509;
},
{
layerId = "9527F797-22C1-480E-A1FE-2CDBEBE1FD4C";
paths = (
{
closed = 1;
nodes = (
"484 0 LINE",
"484 325 LINE SMOOTH",
"484 471 OFFCURVE",
"424 530 OFFCURVE",
"273 530 CURVE SMOOTH",
"194 530 OFFCURVE",
"117 514 OFFCURVE",
"49 483 CURVE",
"66 394 LINE",
"128 424 OFFCURVE",
"198 440 OFFCURVE",
"265 440 CURVE SMOOTH",
"350 440 OFFCURVE",
"376 415 OFFCURVE",
"376 330 CURVE SMOOTH",
"376 69 LINE",
"380 69 LINE",
"381 0 LINE"
);
},
{
closed = 1;
nodes = (
"271 -10 OFFCURVE",
"340 20 OFFCURVE",
"378 69 CURVE",
"430 69 LINE",
"430 203 LINE",
"376 203 LINE",
"376 131 OFFCURVE",
"313 78 OFFCURVE",
"230 78 CURVE SMOOTH",
"170 78 OFFCURVE",
"135 106 OFFCURVE",
"135 154 CURVE SMOOTH",
"135 220 OFFCURVE",
"201 253 OFFCURVE",
"331 253 CURVE SMOOTH",
"430 253 LINE",
"430 338 LINE",
"331 338 LINE SMOOTH",
"136 338 OFFCURVE",
"27 269 OFFCURVE",
"27 145 CURVE SMOOTH",
"27 50 OFFCURVE",
"92 -10 OFFCURVE",
"197 -10 CURVE SMOOTH"
);
}
);
width = 545;
},
{
layerId = "9E6B41AB-2970-4C41-8B35-4DBE0D296A43";
paths = (
{
closed = 1;
nodes = (
"529 0 LINE",
"529 320 LINE SMOOTH",
"529 470 OFFCURVE",
"460 530 OFFCURVE",
"289 530 CURVE SMOOTH",
"205 530 OFFCURVE",
"120 514 OFFCURVE",
"49 485 CURVE",
"73 344 LINE",
"140 374 OFFCURVE",
"210 390 OFFCURVE",
"273 390 CURVE SMOOTH",
"322 390 OFFCURVE",
"333 379 OFFCURVE",
"333 330 CURVE SMOOTH",
"333 60 LINE",
"341 60 LINE",
"343 0 LINE"
);
},
{
closed = 1;
nodes = (
"248 -10 OFFCURVE",
"300 14 OFFCURVE",
"339 60 CURVE",
"431 60 LINE",
"431 195 LINE",
"333 195 LINE",
"333 153 OFFCURVE",
"302 125 OFFCURVE",
"255 125 CURVE SMOOTH",
"219 125 OFFCURVE",
"200 141 OFFCURVE",
"200 170 CURVE SMOOTH",
"200 208 OFFCURVE",
"233 225 OFFCURVE",
"309 225 CURVE SMOOTH",
"431 225 LINE",
"431 330 LINE",
"309 330 LINE SMOOTH",
"127 330 OFFCURVE",
"24 265 OFFCURVE",
"24 150 CURVE SMOOTH",
"24 55 OFFCURVE",
"91 -10 OFFCURVE",
"189 -10 CURVE SMOOTH"
);
}
);
width = 582;
}
);
leftKerningGroup = a;
leftMetricsKey = "=h*.4";
rightKerningGroup = h;
rightMetricsKey = "=h";
unicode = 0061;
},
{
glyphname = b;
lastChange = "2019-12-16 13:24:09 +0000";
layers = (
{
layerId = "D65C9A1E-0FCA-4B2D-8EDF-9F36CA9182A1";
paths = (
{
closed = 1;
nodes = (
"433 -10 OFFCURVE",
"517 93 OFFCURVE",
"517 260 CURVE SMOOTH",
"517 427 OFFCURVE",
"433 530 OFFCURVE",
"297 530 CURVE SMOOTH",
"202 530 OFFCURVE",
"132 480 OFFCURVE",
"99 397 CURVE",
"87 397 LINE",
"87 285 LINE",
"97 285 LINE",
"97 422 OFFCURVE",
"176 510 OFFCURVE",
"297 510 CURVE SMOOTH",
"422 510 OFFCURVE",
"497 416 OFFCURVE",
"497 260 CURVE SMOOTH",
"497 104 OFFCURVE",
"422 10 OFFCURVE",
"297 10 CURVE SMOOTH",
"176 10 OFFCURVE",
"97 98 OFFCURVE",
"97 235 CURVE",
"87 235 LINE",
"87 123 LINE",
"99 123 LINE",
"132 40 OFFCURVE",
"202 -10 OFFCURVE",
"297 -10 CURVE SMOOTH"
);
},
{
closed = 1;
nodes = (
"97 0 LINE",
"97 123 LINE",
"97 123 LINE",
"97 750 LINE",
"77 750 LINE",
"77 0 LINE"
);
}
);
width = 560;
},
{
layerId = "9E6B41AB-2970-4C41-8B35-4DBE0D296A43";
paths = (
{
closed = 1;
nodes = (
"536 -10 OFFCURVE",
"605 85 OFFCURVE",
"605 260 CURVE SMOOTH",
"605 435 OFFCURVE",
"536 530 OFFCURVE",
"410 530 CURVE SMOOTH",
"349 530 OFFCURVE",
"301 508 OFFCURVE",
"257 460 CURVE",
"157 460 LINE",
"157 280 LINE",
"255 280 LINE",
"255 347 OFFCURVE",
"281 380 OFFCURVE",
"334 380 CURVE SMOOTH",
"389 380 OFFCURVE",
"413 344 OFFCURVE",
"413 260 CURVE SMOOTH",
"413 176 OFFCURVE",
"389 140 OFFCURVE",
"334 140 CURVE SMOOTH",
"281 140 OFFCURVE",
"255 173 OFFCURVE",
"255 240 CURVE",
"157 240 LINE",
"157 60 LINE",
"249 60 LINE",
"298 12 OFFCURVE",
"349 -10 OFFCURVE",
"410 -10 CURVE SMOOTH"
);
},
{
closed = 1;
nodes = (
"245 0 LINE",
"247 60 LINE",
"255 60 LINE",
"255 750 LINE",
"59 750 LINE",
"59 0 LINE"
);
}
);
width = 638;
},
{
layerId = "9527F797-22C1-480E-A1FE-2CDBEBE1FD4C";
paths = (
{
closed = 1;
nodes = (
"488 -10 OFFCURVE",
"561 86 OFFCURVE",
"561 260 CURVE SMOOTH",
"561 434 OFFCURVE",
"488 530 OFFCURVE",
"354 530 CURVE SMOOTH",
"281 530 OFFCURVE",
"217 501 OFFCURVE",
"178 449 CURVE",
"122 449 LINE",
"122 283 LINE",
"176 283 LINE",
"176 376 OFFCURVE",
"236 440 OFFCURVE",
"323 440 CURVE SMOOTH",
"409 440 OFFCURVE",
"455 377 OFFCURVE",
"455 260 CURVE SMOOTH",
"455 143 OFFCURVE",
"409 80 OFFCURVE",
"323 80 CURVE SMOOTH",
"236 80 OFFCURVE",
"176 144 OFFCURVE",
"176 237 CURVE",
"122 237 LINE",
"122 71 LINE",
"174 71 LINE",
"215 20 OFFCURVE",
"280 -10 OFFCURVE",
"354 -10 CURVE SMOOTH"
);
},
{
closed = 1;
nodes = (
"171 0 LINE",
"172 71 LINE",
"176 71 LINE",
"176 750 LINE",
"68 750 LINE",
"68 0 LINE"
);
}
);
width = 598;
}
);
leftKerningGroup = b;
leftMetricsKey = "=h";
rightKerningGroup = o;
rightMetricsKey = "=o*1.1";
unicode = 0062;
},
{
glyphname = c;
lastChange = "2019-12-16 13:51:49 +0000";
layers = (
{
layerId = "D65C9A1E-0FCA-4B2D-8EDF-9F36CA9182A1";
rightMetricsKey = "=h";
paths = (
{
closed = 1;
nodes = (
"355 -10 OFFCURVE",
"401 1 OFFCURVE",
"449 25 CURVE",
"440 43 LINE",
"395 20 OFFCURVE",
"352 10 OFFCURVE",
"302 10 CURVE SMOOTH",
"151 10 OFFCURVE",
"59 105 OFFCURVE",
"59 260 CURVE SMOOTH",
"59 415 OFFCURVE",
"151 510 OFFCURVE",
"302 510 CURVE SMOOTH",
"352 510 OFFCURVE",
"395 500 OFFCURVE",
"440 477 CURVE",
"449 495 LINE",
"401 519 OFFCURVE",
"355 530 OFFCURVE",
"302 530 CURVE SMOOTH",
"140 530 OFFCURVE",
"39 426 OFFCURVE",
"39 260 CURVE SMOOTH",
"39 94 OFFCURVE",
"140 -10 OFFCURVE",
"302 -10 CURVE SMOOTH"
);
}
);
width = 518;
},
{
layerId = "9527F797-22C1-480E-A1FE-2CDBEBE1FD4C";
rightMetricsKey = "=h*.9";
paths = (
{
closed = 1;
nodes = (
"376 -10 OFFCURVE",
"428 2 OFFCURVE",
"479 28 CURVE",
"454 113 LINE",
"411 91 OFFCURVE",
"366 80 OFFCURVE",
"320 80 CURVE SMOOTH",
"207 80 OFFCURVE",
"142 146 OFFCURVE",
"142 260 CURVE SMOOTH",
"142 374 OFFCURVE",
"207 440 OFFCURVE",
"320 440 CURVE SMOOTH",
"366 440 OFFCURVE",
"411 429 OFFCURVE",
"454 407 CURVE",
"479 492 LINE",
"428 518 OFFCURVE",
"376 530 OFFCURVE",
"315 530 CURVE SMOOTH",
"138 530 OFFCURVE",
"34 430 OFFCURVE",
"34 260 CURVE SMOOTH",
"34 90 OFFCURVE",
"138 -10 OFFCURVE",
"315 -10 CURVE SMOOTH"
);
}
);
width = 534;
},
{
layerId = "9E6B41AB-2970-4C41-8B35-4DBE0D296A43";
rightMetricsKey = "=h*.8";
paths = (
{
closed = 1;
nodes = (
"399 -10 OFFCURVE",
"456 3 OFFCURVE",
"510 30 CURVE",
"469 166 LINE",
"423 143 OFFCURVE",
"379 132 OFFCURVE",
"340 132 CURVE SMOOTH",
"264 132 OFFCURVE",
"226 174 OFFCURVE",
"226 260 CURVE SMOOTH",
"226 346 OFFCURVE",
"264 388 OFFCURVE",
"340 388 CURVE SMOOTH",
"379 388 OFFCURVE",
"423 377 OFFCURVE",
"469 354 CURVE",
"510 490 LINE",
"456 517 OFFCURVE",
"399 530 OFFCURVE",
"330 530 CURVE SMOOTH",
"138 530 OFFCURVE",
"30 433 OFFCURVE",
"30 260 CURVE SMOOTH",
"30 87 OFFCURVE",
"138 -10 OFFCURVE",
"330 -10 CURVE SMOOTH"
);
}
);
width = 552;
}
);
leftKerningGroup = o;
leftMetricsKey = "=o";
rightKerningGroup = c;
rightMetricsKey = "=h*.8";
unicode = 0063;
},
{
glyphname = e;
lastChange = "2019-12-16 02:45:38 +0000";
layers = (
{
layerId = "D65C9A1E-0FCA-4B2D-8EDF-9F36CA9182A1";
paths = (
{
closed = 1;
nodes = (
"355 -10 OFFCURVE",
"420 6 OFFCURVE",
"477 36 CURVE",
"468 54 LINE",
"414 25 OFFCURVE",
"352 10 OFFCURVE",
"291 10 CURVE SMOOTH",
"144 10 OFFCURVE",
"59 101 OFFCURVE",
"59 260 CURVE",
"59 260 LINE",
"59 419 OFFCURVE",
"140 510 OFFCURVE",
"279 510 CURVE SMOOTH",
"414 510 OFFCURVE",
"489 423 OFFCURVE",
"489 260 CURVE",
"499 275 LINE",
"49 275 LINE",
"49 255 LINE",
"509 255 LINE",
"509 257 OFFCURVE",
"509 258 OFFCURVE",
"509 260 CURVE SMOOTH",
"509 433 OFFCURVE",
"426 530 OFFCURVE",
"279 530 CURVE SMOOTH",
"129 530 OFFCURVE",
"39 429 OFFCURVE",
"39 260 CURVE SMOOTH",
"39 90 OFFCURVE",
"133 -10 OFFCURVE",
"291 -10 CURVE SMOOTH"
);
}
);
width = 546;
},
{
layerId = "9527F797-22C1-480E-A1FE-2CDBEBE1FD4C";
paths = (
{
closed = 1;
nodes = (
"374 -10 OFFCURVE",
"444 5 OFFCURVE",
"499 32 CURVE",
"475 115 LINE",
"431 93 OFFCURVE",
"368 80 OFFCURVE",
"311 80 CURVE SMOOTH",
"197 80 OFFCURVE",
"140 133 OFFCURVE",
"140 240 CURVE SMOOTH",
"140 270 LINE SMOOTH",
"140 387 OFFCURVE",
"187 442 OFFCURVE",
"289 442 CURVE SMOOTH",
"389 442 OFFCURVE",
"433 389 OFFCURVE",
"433 270 CURVE",
"449 300 LINE",
"94 300 LINE",
"94 215 LINE",
"532 215 LINE",
"533 227 OFFCURVE",
"534 241 OFFCURVE",
"534 260 CURVE SMOOTH",
"534 434 OFFCURVE",
"448 530 OFFCURVE",
"289 530 CURVE SMOOTH",
"127 530 OFFCURVE",
"34 431 OFFCURVE",
"34 260 CURVE SMOOTH",
"34 86 OFFCURVE",
"130 -10 OFFCURVE",
"305 -10 CURVE SMOOTH"
);
}
);
width = 566;
},
{
layerId = "9E6B41AB-2970-4C41-8B35-4DBE0D296A43";
paths = (
{
closed = 1;
nodes = (
"394 -10 OFFCURVE",
"469 4 OFFCURVE",
"522 28 CURVE",
"483 154 LINE",
"441 136 OFFCURVE",
"385 125 OFFCURVE",
"332 125 CURVE SMOOTH",
"252 125 OFFCURVE",
"222 151 OFFCURVE",
"222 220 CURVE SMOOTH",
"222 280 LINE SMOOTH",
"222 373 OFFCURVE",
"242 405 OFFCURVE",
"300 405 CURVE SMOOTH",
"358 405 OFFCURVE",
"378 373 OFFCURVE",
"378 280 CURVE",
"401 305 LINE",
"140 305 LINE",
"140 195 LINE",
"556 195 LINE",
"558 210 OFFCURVE",
"560 234 OFFCURVE",
"560 260 CURVE SMOOTH",
"560 437 OFFCURVE",
"470 530 OFFCURVE",
"300 530 CURVE SMOOTH",
"127 530 OFFCURVE",
"30 434 OFFCURVE",
"30 260 CURVE SMOOTH",
"30 81 OFFCURVE",
"128 -10 OFFCURVE",
"320 -10 CURVE SMOOTH"
);
}
);
width = 589;
}
);
leftKerningGroup = o;
leftMetricsKey = "=o";
rightKerningGroup = o;
rightMetricsKey = "=o*.95";
unicode = 0065;
},
{
glyphname = f;
lastChange = "2019-12-16 17:48:28 +0000";
layers = (
{
layerId = "D65C9A1E-0FCA-4B2D-8EDF-9F36CA9182A1";
paths = (
{
closed = 1;
nodes = (
"211 0 LINE",
"211 480 LINE",
"433 480 LINE",
"433 500 LINE",
"211 500 LINE",
"211 590 LINE SMOOTH",
"211 681 OFFCURVE",
"251 720 OFFCURVE",
"344 720 CURVE SMOOTH",
"373 720 OFFCURVE",
"398 716 OFFCURVE",
"426 706 CURVE",
"433 725 LINE",
"401 736 OFFCURVE",
"374 740 OFFCURVE",
"344 740 CURVE SMOOTH",
"240 740 OFFCURVE",
"191 692 OFFCURVE",
"191 590 CURVE SMOOTH",
"191 500 LINE",
"23 500 LINE",
"23 480 LINE",
"191 480 LINE",
"191 0 LINE"
);
}
);
width = 456;
},
{
layerId = "9527F797-22C1-480E-A1FE-2CDBEBE1FD4C";
paths = (
{
closed = 1;
nodes = (
"271 0 LINE",
"271 410 LINE",
"455 410 LINE",
"455 500 LINE",
"271 500 LINE",
"271 555 LINE SMOOTH",
"271 624 OFFCURVE",
"296 650 OFFCURVE",
"365 650 CURVE SMOOTH",
"393 650 OFFCURVE",
"418 646 OFFCURVE",
"444 637 CURVE",
"460 725 LINE",
"422 735 OFFCURVE",
"384 740 OFFCURVE",
"348 740 CURVE SMOOTH",
"225 740 OFFCURVE",
"161 677 OFFCURVE",
"161 555 CURVE SMOOTH",
"161 500 LINE",
"20 500 LINE",
"20 410 LINE",
"161 410 LINE",
"161 0 LINE"
);
}
);
width = 480;
},
{
layerId = "9E6B41AB-2970-4C41-8B35-4DBE0D296A43";
paths = (
{
closed = 1;
nodes = (
"333 0 LINE",
"333 360 LINE",
"478 360 LINE",
"478 500 LINE",
"333 500 LINE",
"333 520 LINE SMOOTH",
"333 582 OFFCURVE",
"345 600 OFFCURVE",
"388 600 CURVE SMOOTH",
"411 600 OFFCURVE",
"436 595 OFFCURVE",
"463 585 CURVE",
"488 725 LINE",
"443 734 OFFCURVE",
"392 740 OFFCURVE",
"353 740 CURVE SMOOTH",
"210 740 OFFCURVE",
"133 663 OFFCURVE",
"133 520 CURVE SMOOTH",
"133 500 LINE",
"18 500 LINE",
"18 360 LINE",
"133 360 LINE",
"133 0 LINE"
);
}
);
width = 506;
}
);
leftKerningGroup = f;
leftMetricsKey = "=h*.3";
rightKerningGroup = f;
rightMetricsKey = "=d*.3";
unicode = 0066;
},
{
glyphname = g;
lastChange = "2019-12-16 13:33:49 +0000";
layers = (
{
layerId = "D65C9A1E-0FCA-4B2D-8EDF-9F36CA9182A1";
paths = (
{
closed = 1;
nodes = (
"407 -230 OFFCURVE",
"483 -147 OFFCURVE",
"483 30 CURVE SMOOTH",
"483 520 LINE",
"463 520 LINE",
"463 397 LINE",
"463 397 LINE",
"463 30 LINE SMOOTH",
"463 -136 OFFCURVE",
"395 -210 OFFCURVE",
"243 -210 CURVE SMOOTH",
"186 -210 OFFCURVE",
"138 -200 OFFCURVE",
"88 -177 CURVE",
"80 -195 LINE",
"132 -219 OFFCURVE",
"183 -230 OFFCURVE",
"243 -230 CURVE SMOOTH"
);
},
{
closed = 1;
nodes = (
"358 -10 OFFCURVE",
"428 40 OFFCURVE",
"461 123 CURVE",
"473 123 LINE",
"473 235 LINE",
"463 235 LINE",
"463 98 OFFCURVE",
"384 10 OFFCURVE",
"263 10 CURVE SMOOTH",
"138 10 OFFCURVE",
"63 104 OFFCURVE",
"63 260 CURVE SMOOTH",
"63 416 OFFCURVE",
"138 510 OFFCURVE",
"263 510 CURVE SMOOTH",
"384 510 OFFCURVE",
"463 422 OFFCURVE",
"463 285 CURVE",
"473 285 LINE",
"473 397 LINE",
"461 397 LINE",
"428 480 OFFCURVE",
"358 530 OFFCURVE",
"263 530 CURVE SMOOTH",
"127 530 OFFCURVE",
"43 427 OFFCURVE",
"43 260 CURVE SMOOTH",
"43 93 OFFCURVE",
"127 -10 OFFCURVE",
"263 -10 CURVE SMOOTH"
);
}
);
width = 560;
},
{
layerId = "9527F797-22C1-480E-A1FE-2CDBEBE1FD4C";
paths = (
{
closed = 1;
nodes = (
"437 -230 OFFCURVE",
"530 -140 OFFCURVE",
"530 45 CURVE SMOOTH",
"530 520 LINE",
"427 520 LINE",
"426 449 LINE",
"422 449 LINE",
"422 45 LINE SMOOTH",
"422 -86 OFFCURVE",
"369 -140 OFFCURVE",
"240 -140 CURVE SMOOTH",
"185 -140 OFFCURVE",
"137 -130 OFFCURVE",
"93 -110 CURVE",
"74 -198 LINE",
"127 -220 OFFCURVE",
"181 -230 OFFCURVE",
"245 -230 CURVE SMOOTH"
);
},
{
closed = 1;
nodes = (
"319 -10 OFFCURVE",
"382 19 OFFCURVE",
"420 71 CURVE",
"476 71 LINE",
"476 237 LINE",
"422 237 LINE",
"422 144 OFFCURVE",
"362 80 OFFCURVE",
"275 80 CURVE SMOOTH",
"189 80 OFFCURVE",
"143 143 OFFCURVE",
"143 260 CURVE SMOOTH",
"143 377 OFFCURVE",
"189 440 OFFCURVE",
"275 440 CURVE SMOOTH",
"362 440 OFFCURVE",
"422 376 OFFCURVE",
"422 283 CURVE",
"476 283 LINE",
"476 449 LINE",
"424 449 LINE",
"383 501 OFFCURVE",
"319 530 OFFCURVE",
"245 530 CURVE SMOOTH",
"111 530 OFFCURVE",
"37 434 OFFCURVE",
"37 260 CURVE SMOOTH",
"37 86 OFFCURVE",
"111 -10 OFFCURVE",
"245 -10 CURVE SMOOTH"
);
}
);
width = 598;
},
{
layerId = "9E6B41AB-2970-4C41-8B35-4DBE0D296A43";
paths = (
{
closed = 1;
nodes = (
"468 -230 OFFCURVE",
"579 -133 OFFCURVE",
"579 60 CURVE SMOOTH",
"579 520 LINE",
"393 520 LINE",
"391 460 LINE",
"383 460 LINE",
"383 60 LINE SMOOTH",
"383 -49 OFFCURVE",
"344 -90 OFFCURVE",
"239 -90 CURVE SMOOTH",
"190 -90 OFFCURVE",
"148 -81 OFFCURVE",
"99 -61 CURVE",
"69 -200 LINE",
"129 -221 OFFCURVE",
"183 -230 OFFCURVE",
"249 -230 CURVE SMOOTH"
);
},
{
closed = 1;
nodes = (
"289 -10 OFFCURVE",
"337 12 OFFCURVE",
"381 60 CURVE",
"481 60 LINE",
"481 240 LINE",
"383 240 LINE",
"383 173 OFFCURVE",
"357 140 OFFCURVE",
"304 140 CURVE SMOOTH",
"249 140 OFFCURVE",
"225 176 OFFCURVE",
"225 260 CURVE SMOOTH",
"225 344 OFFCURVE",
"249 380 OFFCURVE",
"304 380 CURVE SMOOTH",
"357 380 OFFCURVE",
"383 347 OFFCURVE",
"383 280 CURVE",
"481 280 LINE",
"481 460 LINE",
"389 460 LINE",
"340 508 OFFCURVE",
"289 530 OFFCURVE",
"228 530 CURVE SMOOTH",
"102 530 OFFCURVE",
"33 435 OFFCURVE",
"33 260 CURVE SMOOTH",
"33 85 OFFCURVE",
"102 -10 OFFCURVE",
"228 -10 CURVE SMOOTH"
);
}
);
width = 638;
}
);
leftKerningGroup = o;
leftMetricsKey = "=d";
rightKerningGroup = g;
rightMetricsKey = "=u";
unicode = 0067;
},
{
glyphname = h;
lastChange = "2019-12-16 13:51:49 +0000";
layers = (
{
layerId = "D65C9A1E-0FCA-4B2D-8EDF-9F36CA9182A1";
paths = (
{
closed = 1;
nodes = (
"487 0 LINE",
"487 320 LINE SMOOTH",
"487 457 OFFCURVE",
"428 530 OFFCURVE",
"317 530 CURVE SMOOTH",
"218 530 OFFCURVE",
"136 471 OFFCURVE",
"99 387 CURVE",
"87 387 LINE",
"87 290 LINE",
"97 290 LINE",
"97 412 OFFCURVE",
"195 510 OFFCURVE",
"317 510 CURVE SMOOTH",
"416 510 OFFCURVE",
"467 446 OFFCURVE",
"467 320 CURVE SMOOTH",
"467 0 LINE"
);
},
{
closed = 1;
nodes = (
"97 0 LINE",
"97 750 LINE",
"77 750 LINE",
"77 0 LINE"
);
}
);
width = 556;
},
{
background = {
paths = (
{
closed = 1;
nodes = (
"533 0 LINE",
"533 315 LINE SMOOTH",
"533 462 OFFCURVE",
"479 530 OFFCURVE",
"363 530 CURVE SMOOTH",
"287 530 OFFCURVE",
"219 501 OFFCURVE",
"178 452 CURVE",
"124 452 LINE",
"124 265 LINE",
"176 265 LINE",
"176 367 OFFCURVE",
"238 435 OFFCURVE",
"333 435 CURVE SMOOTH",
"401 435 OFFCURVE",
"425 400 OFFCURVE",
"425 298 CURVE SMOOTH",
"425 0 LINE"
);
},
{
closed = 1;
nodes = (
"176 0 LINE",
"176 750 LINE",
"68 750 LINE",
"68 0 LINE"
);
}
);
};
layerId = "9527F797-22C1-480E-A1FE-2CDBEBE1FD4C";
paths = (
{
closed = 1;
nodes = (
"533 0 LINE",
"533 320 LINE SMOOTH",
"533 462 OFFCURVE",
"478 530 OFFCURVE",
"363 530 CURVE SMOOTH",
"286 530 OFFCURVE",
"220 500 OFFCURVE",
"178 444 CURVE",
"122 444 LINE",
"122 275 LINE",
"176 275 LINE",
"176 369 OFFCURVE",
"240 440 OFFCURVE",
"323 440 CURVE SMOOTH",
"391 440 OFFCURVE",
"425 393 OFFCURVE",
"425 300 CURVE SMOOTH",
"425 0 LINE"
);
},
{
closed = 1;
nodes = (
"176 0 LINE",
"176 750 LINE",
"68 750 LINE",
"68 0 LINE"
);
}
);
width = 594;
},
{
layerId = "9E6B41AB-2970-4C41-8B35-4DBE0D296A43";
paths = (
{
closed = 1;
nodes = (
"579 0 LINE",
"579 320 LINE SMOOTH",
"579 467 OFFCURVE",
"528 530 OFFCURVE",
"409 530 CURVE SMOOTH",
"345 530 OFFCURVE",
"302 510 OFFCURVE",
"257 460 CURVE",
"157 460 LINE",
"157 300 LINE",
"255 300 LINE",
"255 341 OFFCURVE",
"287 370 OFFCURVE",
"329 370 CURVE SMOOTH",
"368 370 OFFCURVE",
"383 345 OFFCURVE",
"383 280 CURVE SMOOTH",
"383 0 LINE"
);
},
{
closed = 1;
nodes = (
"255 0 LINE",
"255 750 LINE",
"59 750 LINE",
"59 0 LINE"
);
}
);
width = 632;
}
);
leftKerningGroup = b;
leftMetricsKey = "=H*.9";
rightKerningGroup = h;
rightMetricsKey = "=|*.9";
unicode = 0068;
},
{
glyphname = i;
lastChange = "2019-12-16 03:31:44 +0000";
layers = (
{
layerId = "D65C9A1E-0FCA-4B2D-8EDF-9F36CA9182A1";
paths = (
{
closed = 1;
nodes = (
"125 0 LINE",
"125 520 LINE",
"105 520 LINE",
"105 0 LINE"
);
},
{
closed = 1;
nodes = (
"145 670 LINE",
"145 730 LINE",
"85 730 LINE",
"85 670 LINE"
);
}
);
width = 230;
},
{
layerId = "9527F797-22C1-480E-A1FE-2CDBEBE1FD4C";
paths = (
{
closed = 1;
nodes = (
"185 0 LINE",
"185 520 LINE",
"75 520 LINE",
"75 0 LINE"
);
},
{
closed = 1;
nodes = (
"185 630 LINE",
"185 740 LINE",
"75 740 LINE",
"75 630 LINE"
);
}
);
width = 260;
},
{
layerId = "9E6B41AB-2970-4C41-8B35-4DBE0D296A43";
paths = (
{
closed = 1;
nodes = (
"265 0 LINE",
"265 520 LINE",
"65 520 LINE",
"65 0 LINE"
);
},
{
closed = 1;
nodes = (
"265 590 LINE",
"265 750 LINE",
"65 750 LINE",
"65 590 LINE"
);
}
);
width = 330;
}
);
leftKerningGroup = l;
leftMetricsKey = "=l";
rightKerningGroup = l;
rightMetricsKey = "=|";
unicode = 0069;
},
{
glyphname = j;
lastChange = "2019-12-16 17:28:01 +0000";
layers = (
{
layerId = "D65C9A1E-0FCA-4B2D-8EDF-9F36CA9182A1";
leftMetricsKey = "=l-215";
paths = (
{
closed = 1;
nodes = (
"72 -230 OFFCURVE",
"126 -182 OFFCURVE",
"126 0 CURVE SMOOTH",
"126 520 LINE",
"106 520 LINE",
"106 0 LINE SMOOTH",
"106 -170 OFFCURVE",
"62 -210 OFFCURVE",
"-130 -210 CURVE",
"-130 -230 LINE"
);
},
{
closed = 1;
nodes = (
"146 670 LINE",
"146 730 LINE",
"86 730 LINE",
"86 670 LINE"
);
}
);
width = 231;
},
{
layerId = "9527F797-22C1-480E-A1FE-2CDBEBE1FD4C";
leftMetricsKey = "=l-185";
paths = (
{
closed = 1;
nodes = (
"135 -230 OFFCURVE",
"203 -175 OFFCURVE",
"203 20 CURVE SMOOTH",
"203 520 LINE",
"93 520 LINE",
"93 20 LINE SMOOTH",
"93 -116 OFFCURVE",
"62 -140 OFFCURVE",
"-110 -140 CURVE",
"-105 -230 LINE"
);
},
{
closed = 1;
nodes = (
"203 630 LINE",
"203 740 LINE",
"93 740 LINE",
"93 630 LINE"
);
}
);
width = 278;
},
{
layerId = "9E6B41AB-2970-4C41-8B35-4DBE0D296A43";
leftMetricsKey = "=l-155";
paths = (
{
closed = 1;
nodes = (
"197 -230 OFFCURVE",
"280 -168 OFFCURVE",
"280 40 CURVE SMOOTH",
"280 520 LINE",
"80 520 LINE",
"80 40 LINE SMOOTH",
"80 -73 OFFCURVE",
"63 -85 OFFCURVE",
"-90 -85 CURVE",
"-80 -230 LINE"
);
},
{
closed = 1;
nodes = (
"280 590 LINE",
"280 750 LINE",
"80 750 LINE",
"80 590 LINE"
);
}
);
width = 345;
}
);
leftKerningGroup = l;
leftMetricsKey = "=-150";
rightKerningGroup = g;
rightMetricsKey = "=l";
unicode = 006A;
},
{
glyphname = k;
lastChange = "2019-12-16 12:29:46 +0000";
layers = (
{
layerId = "D65C9A1E-0FCA-4B2D-8EDF-9F36CA9182A1";
rightMetricsKey = "=d*.5";
paths = (
{
closed = 1;
nodes = (
"97 0 LINE",
"97 263 LINE",
"99 263 LINE",
"434 0 LINE",
"467 0 LINE",
"121 270 LINE",
"451 520 LINE",
"418 520 LINE",
"99 277 LINE",
"97 277 LINE",
"97 750 LINE",
"77 750 LINE",
"77 0 LINE"
);
}
);
width = 506;
},
{
layerId = "9527F797-22C1-480E-A1FE-2CDBEBE1FD4C";
rightMetricsKey = "=d*.35";
paths = (
{
closed = 1;
nodes = (
"176 0 LINE",
"176 234 LINE",
"178 234 LINE",
"404 0 LINE",
"543 0 LINE",
"270 270 LINE",
"533 520 LINE",
"394 520 LINE",
"178 305 LINE",
"176 305 LINE",
"176 750 LINE",
"68 750 LINE",
"68 0 LINE"
);
}
);
width = 567;
},
{
layerId = "9E6B41AB-2970-4C41-8B35-4DBE0D296A43";
rightMetricsKey = "=d*.2";
paths = (
{
closed = 1;
nodes = (
"255 0 LINE",
"255 215 LINE",
"257 215 LINE",
"394 0 LINE",
"619 0 LINE",
"419 270 LINE",
"614 520 LINE",
"389 520 LINE",
"257 325 LINE",
"255 325 LINE",
"255 750 LINE",
"59 750 LINE",
"59 0 LINE"
);
}
);
width = 631;
}
);
leftKerningGroup = b;
leftMetricsKey = "=h";
rightKerningGroup = x;
rightMetricsKey = "=d*.2";
unicode = 006B;
},
{
glyphname = l;
lastChange = "2019-12-16 03:30:42 +0000";
layers = (
{
layerId = "D65C9A1E-0FCA-4B2D-8EDF-9F36CA9182A1";
paths = (
{
closed = 1;
nodes = (
"105 0 LINE",
"105 750 LINE",
"85 750 LINE",
"85 0 LINE"
);
}
);
width = 190;
},
{
layerId = "9527F797-22C1-480E-A1FE-2CDBEBE1FD4C";
paths = (
{
closed = 1;
nodes = (
"185 0 LINE",
"185 750 LINE",
"75 750 LINE",
"75 0 LINE"
);
}
);
width = 260;
},
{
layerId = "9E6B41AB-2970-4C41-8B35-4DBE0D296A43";
paths = (
{
closed = 1;
nodes = (
"265 0 LINE",
"265 750 LINE",
"65 750 LINE",
"65 0 LINE"
);
}
);
width = 330;
}
);
leftKerningGroup = l;
leftMetricsKey = "=h*1.1";
rightKerningGroup = l;
rightMetricsKey = "=|";
unicode = 006C;
},
{
glyphname = m;
lastChange = "2019-12-16 13:51:49 +0000";
layers = (
{
layerId = "D65C9A1E-0FCA-4B2D-8EDF-9F36CA9182A1";
paths = (
{
closed = 1;
nodes = (
"717 0 LINE",
"717 320 LINE SMOOTH",
"717 458 OFFCURVE",
"670 530 OFFCURVE",
"580 530 CURVE SMOOTH",
"504 530 OFFCURVE",
"437 479 OFFCURVE",
"403 397 CURVE",
"397 397 LINE",
"397 318 LINE",
"407 318 LINE",
"407 420 OFFCURVE",
"488 510 OFFCURVE",
"580 510 CURVE SMOOTH",
"657 510 OFFCURVE",
"697 447 OFFCURVE",
"697 320 CURVE SMOOTH",
"697 0 LINE"
);
},
{
closed = 1;
nodes = (
"97 0 LINE",
"97 397 LINE",
"97 397 LINE",
"97 520 LINE",
"77 520 LINE",
"77 0 LINE"
);
},
{
closed = 1;
nodes = (
"407 0 LINE",
"407 320 LINE SMOOTH",
"407 458 OFFCURVE",
"360 530 OFFCURVE",
"270 530 CURVE SMOOTH",
"196 530 OFFCURVE",
"133 481 OFFCURVE",
"99 397 CURVE",
"87 397 LINE",
"87 290 LINE",
"97 290 LINE",
"97 412 OFFCURVE",
"174 510 OFFCURVE",
"270 510 CURVE SMOOTH",
"347 510 OFFCURVE",
"387 447 OFFCURVE",
"387 320 CURVE SMOOTH",
"387 0 LINE"
);
}
);
width = 786;
},
{
layerId = "9527F797-22C1-480E-A1FE-2CDBEBE1FD4C";
paths = (
{
closed = 1;
nodes = (
"772 0 LINE",
"772 320 LINE SMOOTH",
"772 467 OFFCURVE",
"729 530 OFFCURVE",
"628 530 CURVE SMOOTH",
"559 530 OFFCURVE",
"496 500 OFFCURVE",
"455 449 CURVE",
"419 449 LINE",
"419 289 LINE",
"473 289 LINE",
"473 372 OFFCURVE",
"525 440 OFFCURVE",
"588 440 CURVE SMOOTH",
"640 440 OFFCURVE",
"666 394 OFFCURVE",
"666 300 CURVE SMOOTH",
"666 0 LINE"
);
},
{
closed = 1;
nodes = (
"174 0 LINE",
"174 449 LINE",
"170 449 LINE",
"169 520 LINE",
"68 520 LINE",
"68 0 LINE"
);
},
{
closed = 1;
nodes = (
"473 0 LINE",
"473 320 LINE SMOOTH",
"473 464 OFFCURVE",
"428 530 OFFCURVE",
"329 530 CURVE SMOOTH",
"264 530 OFFCURVE",
"209 502 OFFCURVE",
"172 449 CURVE",
"120 449 LINE",
"120 275 LINE",
"174 275 LINE",
"174 368 OFFCURVE",
"224 440 OFFCURVE",
"289 440 CURVE SMOOTH",
"341 440 OFFCURVE",
"367 394 OFFCURVE",
"367 300 CURVE SMOOTH",
"367 0 LINE"
);
}
);
width = 833;
},
{
layerId = "9E6B41AB-2970-4C41-8B35-4DBE0D296A43";
paths = (
{
closed = 1;
nodes = (
"827 0 LINE",
"827 320 LINE SMOOTH",
"827 467 OFFCURVE",
"782 530 OFFCURVE",
"676 530 CURVE SMOOTH",
"610 530 OFFCURVE",
"563 509 OFFCURVE",
"517 460 CURVE",
"441 460 LINE",
"441 300 LINE",
"539 300 LINE",
"539 340 OFFCURVE",
"563 370 OFFCURVE",
"595 370 CURVE SMOOTH",
"624 370 OFFCURVE",
"635 345 OFFCURVE",
"635 280 CURVE SMOOTH",
"635 0 LINE"
);
},
{
closed = 1;
nodes = (
"251 0 LINE",
"251 460 LINE",
"243 460 LINE",
"241 520 LINE",
"59 520 LINE",
"59 0 LINE"
);
},
{
closed = 1;
nodes = (
"539 0 LINE",
"539 320 LINE SMOOTH",
"539 467 OFFCURVE",
"494 530 OFFCURVE",
"388 530 CURVE SMOOTH",
"329 530 OFFCURVE",
"286 509 OFFCURVE",
"245 460 CURVE",
"153 460 LINE",
"153 300 LINE",
"251 300 LINE",
"251 340 OFFCURVE",
"275 370 OFFCURVE",
"307 370 CURVE SMOOTH",
"336 370 OFFCURVE",
"347 345 OFFCURVE",
"347 280 CURVE SMOOTH",
"347 0 LINE"
);
}
);
width = 880;
}
);
leftKerningGroup = n;
leftMetricsKey = "=n";
rightKerningGroup = h;
rightMetricsKey = "=n";
unicode = 006D;
},
{
glyphname = n;
lastChange = "2019-12-16 14:54:19 +0000";
layers = (
{
layerId = "D65C9A1E-0FCA-4B2D-8EDF-9F36CA9182A1";
paths = (
{
closed = 1;
nodes = (
"487 0 LINE",
"487 320 LINE SMOOTH",
"487 457 OFFCURVE",
"428 530 OFFCURVE",
"317 530 CURVE SMOOTH",
"218 530 OFFCURVE",
"136 471 OFFCURVE",
"99 387 CURVE",
"87 387 LINE",
"87 290 LINE",
"97 290 LINE",
"97 412 OFFCURVE",
"195 510 OFFCURVE",
"317 510 CURVE SMOOTH",
"416 510 OFFCURVE",
"467 446 OFFCURVE",
"467 320 CURVE SMOOTH",
"467 0 LINE"
);
},
{
closed = 1;
nodes = (
"97 0 LINE",
"97 387 LINE",
"97 387 LINE",
"97 520 LINE",
"77 520 LINE",
"77 0 LINE"
);
}
);
width = 556;
},
{
layerId = "9527F797-22C1-480E-A1FE-2CDBEBE1FD4C";
paths = (
{
closed = 1;
nodes = (
"533 0 LINE",
"533 320 LINE SMOOTH",
"533 462 OFFCURVE",
"478 530 OFFCURVE",
"363 530 CURVE SMOOTH",
"285 530 OFFCURVE",
"216 499 OFFCURVE",
"174 444 CURVE",
"122 444 LINE",
"122 275 LINE",
"176 275 LINE",
"176 369 OFFCURVE",
"240 440 OFFCURVE",
"323 440 CURVE SMOOTH",
"391 440 OFFCURVE",
"425 393 OFFCURVE",
"425 300 CURVE SMOOTH",
"425 0 LINE"
);
},
{
closed = 1;
nodes = (
"176 0 LINE",
"176 444 LINE",
"172 444 LINE",
"171 520 LINE",
"68 520 LINE",
"68 0 LINE"
);
}
);
width = 594;
},
{
layerId = "9E6B41AB-2970-4C41-8B35-4DBE0D296A43";
paths = (
{
closed = 1;
nodes = (
"579 0 LINE",
"579 320 LINE SMOOTH",
"579 467 OFFCURVE",
"528 530 OFFCURVE",
"409 530 CURVE SMOOTH",
"343 530 OFFCURVE",
"295 509 OFFCURVE",
"249 460 CURVE",
"157 460 LINE",
"157 300 LINE",
"255 300 LINE",
"255 341 OFFCURVE",
"287 370 OFFCURVE",
"329 370 CURVE SMOOTH",
"368 370 OFFCURVE",
"383 345 OFFCURVE",
"383 280 CURVE SMOOTH",
"383 0 LINE"
);
},
{
closed = 1;
nodes = (
"255 0 LINE",
"255 460 LINE",
"247 460 LINE",
"245 520 LINE",
"59 520 LINE",
"59 0 LINE"
);
}
);
width = 632;
}
);
leftKerningGroup = n;
leftMetricsKey = "=h";
rightKerningGroup = h;
rightMetricsKey = "=h";
unicode = 006E;
},
{
glyphname = o;
lastChange = "2019-12-16 17:25:46 +0000";
layers = (
{
layerId = "D65C9A1E-0FCA-4B2D-8EDF-9F36CA9182A1";
paths = (
{
closed = 1;
nodes = (
"459 -10 OFFCURVE",
"559 94 OFFCURVE",
"559 260 CURVE SMOOTH",
"559 426 OFFCURVE",
"459 530 OFFCURVE",
"299 530 CURVE SMOOTH",
"138 530 OFFCURVE",
"39 426 OFFCURVE",
"39 260 CURVE SMOOTH",
"39 94 OFFCURVE",
"138 -10 OFFCURVE",
"299 -10 CURVE SMOOTH"
);
},
{
closed = 1;
nodes = (
"150 10 OFFCURVE",
"59 105 OFFCURVE",
"59 260 CURVE SMOOTH",
"59 415 OFFCURVE",
"150 510 OFFCURVE",
"299 510 CURVE SMOOTH",
"447 510 OFFCURVE",
"539 415 OFFCURVE",
"539 260 CURVE SMOOTH",
"539 105 OFFCURVE",
"447 10 OFFCURVE",
"299 10 CURVE SMOOTH"
);
}
);
width = 598;
},
{
layerId = "9527F797-22C1-480E-A1FE-2CDBEBE1FD4C";
paths = (
{
closed = 1;
nodes = (
"471 -10 OFFCURVE",
"569 89 OFFCURVE",
"569 260 CURVE SMOOTH",
"569 431 OFFCURVE",
"471 530 OFFCURVE",
"301 530 CURVE SMOOTH",
"131 530 OFFCURVE",
"34 431 OFFCURVE",
"34 260 CURVE SMOOTH",
"34 89 OFFCURVE",
"131 -10 OFFCURVE",
"301 -10 CURVE SMOOTH"
);
},
{
closed = 1;
nodes = (
"197 80 OFFCURVE",
"142 141 OFFCURVE",
"142 260 CURVE SMOOTH",
"142 379 OFFCURVE",
"197 440 OFFCURVE",
"301 440 CURVE SMOOTH",
"405 440 OFFCURVE",
"461 378 OFFCURVE",
"461 260 CURVE SMOOTH",
"461 142 OFFCURVE",
"405 80 OFFCURVE",
"301 80 CURVE SMOOTH"
);
}
);
width = 603;
},
{
background = {
paths = (
{
closed = 1;
nodes = (
"476 -10 OFFCURVE",
"580 92 OFFCURVE",
"580 260 CURVE SMOOTH",
"580 428 OFFCURVE",
"476 530 OFFCURVE",
"305 530 CURVE SMOOTH",
"134 530 OFFCURVE",
"30 428 OFFCURVE",
"30 260 CURVE SMOOTH",
"30 92 OFFCURVE",
"134 -10 OFFCURVE",
"305 -10 CURVE SMOOTH"
);
},
{
closed = 1;
nodes = (
"245 125 OFFCURVE",
"220 165 OFFCURVE",
"220 260 CURVE SMOOTH",
"220 355 OFFCURVE",
"245 395 OFFCURVE",
"305 395 CURVE SMOOTH",
"365 395 OFFCURVE",
"390 355 OFFCURVE",
"390 260 CURVE SMOOTH",
"390 165 OFFCURVE",
"365 125 OFFCURVE",
"305 125 CURVE SMOOTH"
);
}
);
};
layerId = "9E6B41AB-2970-4C41-8B35-4DBE0D296A43";
paths = (
{
closed = 1;
nodes = (
"484 -10 OFFCURVE",
"580 84 OFFCURVE",
"580 260 CURVE SMOOTH",
"580 436 OFFCURVE",
"484 530 OFFCURVE",
"305 530 CURVE SMOOTH",
"125 530 OFFCURVE",
"30 436 OFFCURVE",
"30 260 CURVE SMOOTH",
"30 84 OFFCURVE",
"125 -10 OFFCURVE",
"305 -10 CURVE SMOOTH"
);
},
{
closed = 1;
nodes = (
"248 130 OFFCURVE",
"226 167 OFFCURVE",
"226 260 CURVE SMOOTH",
"226 353 OFFCURVE",
"248 390 OFFCURVE",
"305 390 CURVE SMOOTH",
"361 390 OFFCURVE",
"384 353 OFFCURVE",
"384 260 CURVE SMOOTH",
"384 167 OFFCURVE",
"361 130 OFFCURVE",
"305 130 CURVE SMOOTH"
);
}
);
width = 610;
}
);
leftKerningGroup = o;
leftMetricsKey = "=h*.5";
rightKerningGroup = o;
rightMetricsKey = "=|";
unicode = 006F;
},
{
glyphname = p;
lastChange = "2019-12-16 13:26:24 +0000";
layers = (
{
background = {
paths = (
);
};
layerId = "D65C9A1E-0FCA-4B2D-8EDF-9F36CA9182A1";
paths = (
{
closed = 1;
nodes = (
"433 -10 OFFCURVE",
"517 93 OFFCURVE",
"517 260 CURVE SMOOTH",
"517 427 OFFCURVE",
"433 530 OFFCURVE",
"297 530 CURVE SMOOTH",
"202 530 OFFCURVE",
"132 480 OFFCURVE",
"99 397 CURVE",
"87 397 LINE",
"87 285 LINE",
"97 285 LINE",
"97 422 OFFCURVE",
"176 510 OFFCURVE",
"297 510 CURVE SMOOTH",
"422 510 OFFCURVE",
"497 416 OFFCURVE",
"497 260 CURVE SMOOTH",
"497 104 OFFCURVE",
"422 10 OFFCURVE",
"297 10 CURVE SMOOTH",
"176 10 OFFCURVE",
"97 98 OFFCURVE",
"97 235 CURVE",
"87 235 LINE",
"87 123 LINE",
"99 123 LINE",
"132 40 OFFCURVE",
"202 -10 OFFCURVE",
"297 -10 CURVE SMOOTH"
);
},
{
closed = 1;
nodes = (
"97 -220 LINE",
"97 397 LINE",
"97 397 LINE",
"97 520 LINE",
"77 520 LINE",
"77 -220 LINE"
);
}
);
width = 556;
},
{
layerId = "9527F797-22C1-480E-A1FE-2CDBEBE1FD4C";
paths = (
{
closed = 1;
nodes = (
"488 -10 OFFCURVE",
"561 86 OFFCURVE",
"561 260 CURVE SMOOTH",
"561 434 OFFCURVE",
"488 530 OFFCURVE",
"354 530 CURVE SMOOTH",
"281 530 OFFCURVE",
"215 501 OFFCURVE",
"174 449 CURVE",
"122 449 LINE",
"122 283 LINE",
"176 283 LINE",
"176 376 OFFCURVE",
"236 440 OFFCURVE",
"323 440 CURVE SMOOTH",
"409 440 OFFCURVE",
"455 377 OFFCURVE",
"455 260 CURVE SMOOTH",
"455 143 OFFCURVE",
"409 80 OFFCURVE",
"323 80 CURVE SMOOTH",
"236 80 OFFCURVE",
"176 144 OFFCURVE",
"176 237 CURVE",
"122 237 LINE",
"122 71 LINE",
"178 71 LINE",
"217 19 OFFCURVE",
"281 -10 OFFCURVE",
"354 -10 CURVE SMOOTH"
);
},
{
closed = 1;
nodes = (
"176 -220 LINE",
"176 449 LINE",
"172 449 LINE",
"171 520 LINE",
"68 520 LINE",
"68 -220 LINE"
);
}
);
width = 595;
},
{
layerId = "9E6B41AB-2970-4C41-8B35-4DBE0D296A43";
paths = (
{
closed = 1;
nodes = (
"536 -10 OFFCURVE",
"605 85 OFFCURVE",
"605 260 CURVE SMOOTH",
"605 435 OFFCURVE",
"536 530 OFFCURVE",
"410 530 CURVE SMOOTH",
"349 530 OFFCURVE",
"298 508 OFFCURVE",
"249 460 CURVE",
"157 460 LINE",
"157 280 LINE",
"255 280 LINE",
"255 347 OFFCURVE",
"281 380 OFFCURVE",
"334 380 CURVE SMOOTH",
"389 380 OFFCURVE",
"413 344 OFFCURVE",
"413 260 CURVE SMOOTH",
"413 176 OFFCURVE",
"389 140 OFFCURVE",
"334 140 CURVE SMOOTH",
"281 140 OFFCURVE",
"255 173 OFFCURVE",
"255 240 CURVE",
"157 240 LINE",
"157 60 LINE",
"257 60 LINE",
"301 12 OFFCURVE",
"349 -10 OFFCURVE",
"410 -10 CURVE SMOOTH"
);
},
{
closed = 1;
nodes = (
"255 -220 LINE",
"255 460 LINE",
"247 460 LINE",
"245 520 LINE",
"59 520 LINE",
"59 -220 LINE"
);
}
);
width = 635;
}
);
leftKerningGroup = n;
leftMetricsKey = "=n";
rightKerningGroup = o;
rightMetricsKey = "=o";
unicode = 0070;
},
{
glyphname = r;
lastChange = "2019-12-16 15:10:41 +0000";
layers = (
{
layerId = "D65C9A1E-0FCA-4B2D-8EDF-9F36CA9182A1";
rightMetricsKey = "=|*.2";
paths = (
{
closed = 1;
nodes = (
"97 0 LINE",
"97 368 LINE",
"97 368 LINE",
"97 520 LINE",
"77 520 LINE",
"77 0 LINE"
);
},
{
closed = 1;
nodes = (
"97 280 LINE",
"97 408 OFFCURVE",
"230 510 OFFCURVE",
"397 510 CURVE",
"397 530 LINE",
"260 530 OFFCURVE",
"145 464 OFFCURVE",
"99 368 CURVE",
"87 368 LINE",
"87 280 LINE"
);
}
);
width = 412;
},
{
layerId = "9527F797-22C1-480E-A1FE-2CDBEBE1FD4C";
rightMetricsKey = "=|*.25";
paths = (
{
closed = 1;
nodes = (
"177 0 LINE",
"177 419 LINE",
"173 419 LINE",
"172 520 LINE",
"68 520 LINE",
"68 0 LINE"
);
},
{
closed = 1;
nodes = (
"177 250 LINE",
"177 353 OFFCURVE",
"293 435 OFFCURVE",
"438 435 CURVE",
"438 530 LINE",
"328 530 OFFCURVE",
"231 489 OFFCURVE",
"175 419 CURVE",
"126 419 LINE",
"126 250 LINE"
);
}
);
width = 455;
},
{
background = {
paths = (
{
closed = 1;
nodes = (
"254 0 LINE",
"254 520 LINE",
"59 520 LINE",
"59 0 LINE"
);
}
);
};
layerId = "9E6B41AB-2970-4C41-8B35-4DBE0D296A43";
rightMetricsKey = "=|*.3";
paths = (
{
closed = 1;
nodes = (
"257 0 LINE",
"257 430 LINE",
"249 430 LINE",
"247 520 LINE",
"59 520 LINE",
"59 0 LINE"
);
},
{
closed = 1;
nodes = (
"257 220 LINE",
"257 303 OFFCURVE",
"357 370 OFFCURVE",
"479 370 CURVE",
"479 530 LINE",
"392 530 OFFCURVE",
"314 496 OFFCURVE",
"251 430 CURVE",
"164 430 LINE",
"164 220 LINE"
);
}
);
width = 497;
}
);
leftKerningGroup = n;
leftMetricsKey = "=n";
rightKerningGroup = r;
rightMetricsKey = "=|*.3";
unicode = 0072;
},
{
glyphname = s;
lastChange = "2019-12-16 17:49:11 +0000";
layers = (
{
layerId = "9527F797-22C1-480E-A1FE-2CDBEBE1FD4C";
paths = (
{
closed = 1;
nodes = (
"388 -10 OFFCURVE",
"469 47 OFFCURVE",
"469 143 CURVE SMOOTH",
"469 227 OFFCURVE",
"408 275 OFFCURVE",
"254 310 CURVE SMOOTH",
"170 329 OFFCURVE",
"140 348 OFFCURVE",
"140 383 CURVE SMOOTH",
"140 423 OFFCURVE",
"179 443 OFFCURVE",
"256 443 CURVE SMOOTH",
"313 443 OFFCURVE",
"371 432 OFFCURVE",
"433 409 CURVE",
"456 492 LINE",
"388 517 OFFCURVE",
"318 530 OFFCURVE",
"249 530 CURVE SMOOTH",
"111 530 OFFCURVE",
"36 479 OFFCURVE",
"36 385 CURVE SMOOTH",
"36 302 OFFCURVE",
"93 256 OFFCURVE",
"242 222 CURVE SMOOTH",
"330 201 OFFCURVE",
"362 181 OFFCURVE",
"362 144 CURVE SMOOTH",
"362 101 OFFCURVE",
"319 78 OFFCURVE",
"241 78 CURVE SMOOTH",
"180 78 OFFCURVE",
"125 92 OFFCURVE",
"56 125 CURVE",
"34 40 LINE",
"101 7 OFFCURVE",
"175 -10 OFFCURVE",
"251 -10 CURVE SMOOTH"
);
}
);
width = 503;
},
{
layerId = "9E6B41AB-2970-4C41-8B35-4DBE0D296A43";
paths = (
{
closed = 1;
nodes = (
"418 -10 OFFCURVE",
"510 54 OFFCURVE",
"510 155 CURVE SMOOTH",
"510 243 OFFCURVE",
"439 297 OFFCURVE",
"280 331 CURVE SMOOTH",
"233 342 OFFCURVE",
"223 348 OFFCURVE",
"223 366 CURVE SMOOTH",
"223 385 OFFCURVE",
"241 392 OFFCURVE",
"285 392 CURVE SMOOTH",
"338 392 OFFCURVE",
"392 382 OFFCURVE",
"463 359 CURVE",
"500 494 LINE",
"424 517 OFFCURVE",
"341 530 OFFCURVE",
"270 530 CURVE SMOOTH",
"116 530 OFFCURVE",
"35 475 OFFCURVE",
"35 370 CURVE SMOOTH",
"35 278 OFFCURVE",
"95 230 OFFCURVE",
"259 191 CURVE SMOOTH",
"306 180 OFFCURVE",
"316 174 OFFCURVE",
"316 158 CURVE SMOOTH",
"316 138 OFFCURVE",
"299 130 OFFCURVE",
"254 130 CURVE SMOOTH",
"191 130 OFFCURVE",
"140 143 OFFCURVE",
"65 178 CURVE",
"30 40 LINE",
"103 7 OFFCURVE",
"186 -10 OFFCURVE",
"275 -10 CURVE SMOOTH"
);
}
);
width = 540;
},
{
layerId = "D65C9A1E-0FCA-4B2D-8EDF-9F36CA9182A1";
paths = (
{
closed = 1;
nodes = (
"352 -10 OFFCURVE",
"429 44 OFFCURVE",
"429 130 CURVE SMOOTH",
"429 206 OFFCURVE",
"373 247 OFFCURVE",
"230 281 CURVE SMOOTH",
"102 311 OFFCURVE",
"59 342 OFFCURVE",
"59 400 CURVE SMOOTH",
"59 470 OFFCURVE",
"120 510 OFFCURVE",
"229 510 CURVE SMOOTH",
"290 510 OFFCURVE",
"348 497 OFFCURVE",
"405 472 CURVE",
"413 490 LINE",
"353 517 OFFCURVE",
"292 530 OFFCURVE",
"229 530 CURVE SMOOTH",
"109 530 OFFCURVE",
"39 482 OFFCURVE",
"39 400 CURVE SMOOTH",
"39 330 OFFCURVE",
"89 293 OFFCURVE",
"226 261 CURVE SMOOTH",
"361 229 OFFCURVE",
"409 194 OFFCURVE",
"409 130 CURVE SMOOTH",
"409 56 OFFCURVE",
"341 10 OFFCURVE",
"229 10 CURVE SMOOTH",
"166 10 OFFCURVE",
"111 25 OFFCURVE",
"48 58 CURVE",
"39 40 LINE",
"105 5 OFFCURVE",
"164 -10 OFFCURVE",
"229 -10 CURVE SMOOTH"
);
}
);
width = 468;
}
);
leftKerningGroup = s;
leftMetricsKey = "=h*.5";
rightKerningGroup = s;
rightMetricsKey = "=|";
unicode = 0073;
},
{
glyphname = t;
lastChange = "2019-12-16 13:51:49 +0000";
layers = (
{
layerId = "D65C9A1E-0FCA-4B2D-8EDF-9F36CA9182A1";
rightMetricsKey = "=c*.8";
paths = (
{
closed = 1;
nodes = (
"338 -10 OFFCURVE",
"373 -5 OFFCURVE",
"408 5 CURVE",
"403 24 LINE",
"369 15 OFFCURVE",
"336 10 OFFCURVE",
"300 10 CURVE SMOOTH",
"204 10 OFFCURVE",
"174 41 OFFCURVE",
"174 140 CURVE SMOOTH",
"174 480 LINE",
"408 480 LINE",
"408 500 LINE",
"174 500 LINE",
"174 690 LINE",
"154 690 LINE",
"154 500 LINE",
"18 500 LINE",
"18 480 LINE",
"154 480 LINE",
"154 140 LINE SMOOTH",
"154 30 OFFCURVE",
"193 -10 OFFCURVE",
"300 -10 CURVE SMOOTH"
);
}
);
width = 463;
},
{
layerId = "9527F797-22C1-480E-A1FE-2CDBEBE1FD4C";
rightMetricsKey = "=c*1";
paths = (
{
closed = 1;
nodes = (
"352 -10 OFFCURVE",
"398 -4 OFFCURVE",
"441 8 CURVE",
"429 95 LINE",
"398 85 OFFCURVE",
"369 80 OFFCURVE",
"335 80 CURVE SMOOTH",
"266 80 OFFCURVE",
"246 100 OFFCURVE",
"246 170 CURVE SMOOTH",
"246 410 LINE",
"441 410 LINE",
"441 500 LINE",
"246 500 LINE",
"246 690 LINE",
"137 690 LINE",
"137 500 LINE",
"16 500 LINE",
"16 410 LINE",
"137 410 LINE",
"137 160 LINE SMOOTH",
"137 36 OFFCURVE",
"183 -10 OFFCURVE",
"307 -10 CURVE SMOOTH"
);
}
);
width = 496;
},
{
layerId = "9E6B41AB-2970-4C41-8B35-4DBE0D296A43";
rightMetricsKey = "=c*1.2";
paths = (
{
closed = 1;
nodes = (
"365 -10 OFFCURVE",
"421 -3 OFFCURVE",
"474 10 CURVE",
"454 145 LINE",
"424 135 OFFCURVE",
"395 130 OFFCURVE",
"369 130 CURVE SMOOTH",
"328 130 OFFCURVE",
"317 143 OFFCURVE",
"317 200 CURVE SMOOTH",
"317 360 LINE",
"474 360 LINE",
"474 500 LINE",
"317 500 LINE",
"317 690 LINE",
"119 690 LINE",
"119 500 LINE",
"14 500 LINE",
"14 360 LINE",
"119 360 LINE",
"119 180 LINE SMOOTH",
"119 43 OFFCURVE",
"173 -10 OFFCURVE",
"314 -10 CURVE SMOOTH"
);
}
);
width = 524;
}
);
leftKerningGroup = f;
leftMetricsKey = "=f*.8";
rightKerningGroup = c;
rightMetricsKey = "=c*1.2";
unicode = 0074;
},
{
glyphname = u;
lastChange = "2019-12-16 17:29:41 +0000";
layers = (
{
layerId = "D65C9A1E-0FCA-4B2D-8EDF-9F36CA9182A1";
paths = (
{
closed = 1;
nodes = (
"326 -10 OFFCURVE",
"395 37 OFFCURVE",
"427 118 CURVE",
"439 118 LINE",
"439 230 LINE",
"429 230 LINE",
"429 96 OFFCURVE",
"354 10 OFFCURVE",
"239 10 CURVE SMOOTH",
"140 10 OFFCURVE",
"89 77 OFFCURVE",
"89 210 CURVE SMOOTH",
"89 520 LINE",
"69 520 LINE",
"69 210 LINE SMOOTH",
"69 67 OFFCURVE",
"128 -10 OFFCURVE",
"239 -10 CURVE SMOOTH"
);
},
{
closed = 1;
nodes = (
"449 0 LINE",
"449 520 LINE",
"429 520 LINE",
"429 118 LINE",
"429 118 LINE",
"429 0 LINE"
);
}
);
width = 526;
},
{
layerId = "9527F797-22C1-480E-A1FE-2CDBEBE1FD4C";
paths = (
{
closed = 1;
nodes = (
"305 -10 OFFCURVE",
"363 17 OFFCURVE",
"400 69 CURVE",
"452 69 LINE",
"452 245 LINE",
"398 245 LINE",
"398 145 OFFCURVE",
"347 80 OFFCURVE",
"269 80 CURVE SMOOTH",
"202 80 OFFCURVE",
"169 128 OFFCURVE",
"169 225 CURVE SMOOTH",
"169 520 LINE",
"61 520 LINE",
"61 205 LINE SMOOTH",
"61 58 OFFCURVE",
"115 -10 OFFCURVE",
"231 -10 CURVE SMOOTH"
);
},
{
closed = 1;
nodes = (
"506 0 LINE",
"506 520 LINE",
"398 520 LINE",
"398 69 LINE",
"402 69 LINE",
"403 0 LINE"
);
}
);
width = 574;
},
{
layerId = "9E6B41AB-2970-4C41-8B35-4DBE0D296A43";
paths = (
{
closed = 1;
nodes = (
"287 -10 OFFCURVE",
"330 10 OFFCURVE",
"373 60 CURVE",
"465 60 LINE",
"465 220 LINE",
"367 220 LINE",
"367 180 OFFCURVE",
"338 150 OFFCURVE",
"298 150 CURVE SMOOTH",
"262 150 OFFCURVE",
"249 174 OFFCURVE",
"249 240 CURVE SMOOTH",
"249 520 LINE",
"53 520 LINE",
"53 200 LINE SMOOTH",
"53 53 OFFCURVE",
"104 -10 OFFCURVE",
"223 -10 CURVE SMOOTH"
);
},
{
closed = 1;
nodes = (
"563 0 LINE",
"563 520 LINE",
"367 520 LINE",
"367 60 LINE",
"375 60 LINE",
"377 0 LINE"
);
}
);
width = 622;
}
);
leftKerningGroup = u;
leftMetricsKey = "=|n";
rightKerningGroup = u;
rightMetricsKey = "=|n";
unicode = 0075;
},
{
glyphname = v;
lastChange = "2019-12-16 17:31:06 +0000";
layers = (
{
layerId = "D65C9A1E-0FCA-4B2D-8EDF-9F36CA9182A1";
paths = (
{
closed = 1;
nodes = (
"261 0 LINE",
"476 520 LINE",
"454 520 LINE",
"247 15 LINE",
"245 15 LINE",
"38 520 LINE",
"16 520 LINE",
"231 0 LINE"
);
}
);
width = 492;
},
{
layerId = "9527F797-22C1-480E-A1FE-2CDBEBE1FD4C";
paths = (
{
closed = 1;
nodes = (
"345 0 LINE",
"528 520 LINE",
"410 520 LINE",
"270 78 LINE",
"268 78 LINE",
"128 520 LINE",
"10 520 LINE",
"193 0 LINE"
);
}
);
width = 538;
},
{
layerId = "9E6B41AB-2970-4C41-8B35-4DBE0D296A43";
paths = (
{
closed = 1;
nodes = (
"431 0 LINE",
"583 520 LINE",
"381 520 LINE",
"295 120 LINE",
"293 120 LINE",
"207 520 LINE",
"5 520 LINE",
"157 0 LINE"
);
}
);
width = 588;
}
);
leftKerningGroup = v;
leftMetricsKey = "=|k*.4";
rightKerningGroup = v;
rightMetricsKey = "=|";
unicode = 0076;
},
{
glyphname = w;
lastChange = "2019-12-16 12:37:01 +0000";
layers = (
{
layerId = "D65C9A1E-0FCA-4B2D-8EDF-9F36CA9182A1";
leftMetricsKey = "=v*2";
paths = (
{
closed = 1;
nodes = (
"228 0 LINE",
"382 502 LINE",
"384 502 LINE",
"538 0 LINE",
"568 0 LINE",
"734 520 LINE",
"712 520 LINE",
"554 19 LINE",
"552 19 LINE",
"399 520 LINE",
"367 520 LINE",
"214 19 LINE",
"212 19 LINE",
"54 520 LINE",
"32 520 LINE",
"198 0 LINE"
);
}
);
width = 766;
},
{
layerId = "9527F797-22C1-480E-A1FE-2CDBEBE1FD4C";
leftMetricsKey = "=v*2.4";
paths = (
{
closed = 1;
nodes = (
"308 0 LINE",
"400 405 LINE",
"402 405 LINE",
"494 0 LINE",
"634 0 LINE",
"778 520 LINE",
"660 520 LINE",
"568 105 LINE",
"566 105 LINE",
"474 520 LINE",
"328 520 LINE",
"236 105 LINE",
"234 105 LINE",
"142 520 LINE",
"24 520 LINE",
"168 0 LINE"
);
}
);
width = 802;
},
{
layerId = "9E6B41AB-2970-4C41-8B35-4DBE0D296A43";
leftMetricsKey = "=v*2.8";
paths = (
{
closed = 1;
nodes = (
"371 0 LINE",
"415 350 LINE",
"417 350 LINE",
"461 0 LINE",
"696 0 LINE",
"818 520 LINE",
"624 520 LINE",
"582 170 LINE",
"580 170 LINE",
"534 520 LINE",
"298 520 LINE",
"252 170 LINE",
"250 170 LINE",
"208 520 LINE",
"14 520 LINE",
"136 0 LINE"
);
}
);
width = 832;
}
);
leftKerningGroup = v;
leftMetricsKey = "=v*2.8";
rightKerningGroup = v;
rightMetricsKey = "=|";
unicode = 0077;
},
{
glyphname = x;
lastChange = "2019-12-16 17:50:01 +0000";
layers = (
{
layerId = "D65C9A1E-0FCA-4B2D-8EDF-9F36CA9182A1";
leftMetricsKey = "=|k";
paths = (
{
closed = 1;
nodes = (
"64 0 LINE",
"248 247 LINE",
"250 247 LINE",
"434 0 LINE",
"459 0 LINE",
"262 263 LINE",
"454 520 LINE",
"429 520 LINE",
"250 280 LINE",
"248 280 LINE",
"69 520 LINE",
"44 520 LINE",
"236 263 LINE",
"39 0 LINE"
);
}
);
width = 498;
},
{
layerId = "9527F797-22C1-480E-A1FE-2CDBEBE1FD4C";
leftMetricsKey = "=|k*1.4";
paths = (
{
closed = 1;
nodes = (
"158 0 LINE",
"275 204 LINE",
"277 204 LINE",
"394 0 LINE",
"518 0 LINE",
"354 262 LINE",
"514 520 LINE",
"390 520 LINE",
"277 320 LINE",
"275 320 LINE",
"162 520 LINE",
"38 520 LINE",
"198 262 LINE",
"34 0 LINE"
);
}
);
width = 552;
},
{
layerId = "9E6B41AB-2970-4C41-8B35-4DBE0D296A43";
leftMetricsKey = "=|k*1.8";
paths = (
{
closed = 1;
nodes = (
"224 0 LINE",
"294 160 LINE",
"296 160 LINE",
"366 0 LINE",
"568 0 LINE",
"430 260 LINE",
"566 520 LINE",
"364 520 LINE",
"296 360 LINE",
"294 360 LINE",
"226 520 LINE",
"24 520 LINE",
"160 260 LINE",
"22 0 LINE"
);
}
);
width = 590;
}
);
leftKerningGroup = x;
leftMetricsKey = "=|k*1.8";
rightKerningGroup = x;
rightMetricsKey = "=|";
unicode = 0078;
},
{
glyphname = y;
lastChange = "2019-12-16 17:40:12 +0000";
layers = (
{
layerId = "D65C9A1E-0FCA-4B2D-8EDF-9F36CA9182A1";
leftMetricsKey = "=v*1.6";
rightMetricsKey = "=v";
paths = (
{
closed = 1;
nodes = (
"485 520 LINE",
"463 520 LINE",
"248 35 LINE",
"246 35 LINE",
"47 520 LINE",
"26 520 LINE",
"239 2 LINE",
"239 17 LINE",
"134 -220 LINE",
"155 -220 LINE"
);
}
);
width = 501;
},
{
layerId = "9527F797-22C1-480E-A1FE-2CDBEBE1FD4C";
leftMetricsKey = "=v*.9";
paths = (
{
closed = 1;
nodes = (
"533 520 LINE",
"413 520 LINE",
"270 118 LINE",
"268 118 LINE",
"129 520 LINE",
"9 520 LINE",
"229 -34 LINE",
"227 16 LINE",
"120 -220 LINE",
"237 -220 LINE"
);
}
);
width = 539;
},
{
layerId = "9E6B41AB-2970-4C41-8B35-4DBE0D296A43";
leftMetricsKey = "=v*.2";
rightMetricsKey = "=v*.2";
paths = (
{
closed = 1;
nodes = (
"591 520 LINE",
"381 520 LINE",
"301 170 LINE",
"299 170 LINE",
"211 520 LINE",
"1 520 LINE",
"229 -69 LINE",
"232 14 LINE",
"124 -220 LINE",
"329 -220 LINE"
);
}
);
width = 592;
},
{
associatedMasterId = "9E6B41AB-2970-4C41-8B35-4DBE0D296A43";
layerId = "1191FCD6-3563-49BB-A7A3-8D05E82C2757";
name = "Dec 7 19, 20:50";
paths = (
{
closed = 1;
nodes = (
"585 520 LINE",
"383 520 LINE",
"301 170 LINE",
"299 170 LINE",
"209 520 LINE",
"7 520 LINE",
"211 0 LINE",
"113 -220 LINE",
"315 -220 LINE"
);
}
);
width = 592;
}
);
leftKerningGroup = v;
leftMetricsKey = "=v*.2";
rightKerningGroup = v;
rightMetricsKey = "=v*.6";
unicode = 0079;
},
{
glyphname = z;
lastChange = "2019-12-16 17:50:28 +0000";
layers = (
{
layerId = "D65C9A1E-0FCA-4B2D-8EDF-9F36CA9182A1";
leftMetricsKey = "=h*.6";
paths = (
{
closed = 1;
nodes = (
"426 0 LINE",
"426 20 LINE",
"72 20 LINE",
"72 22 LINE",
"426 500 LINE",
"426 520 LINE",
"46 520 LINE",
"46 500 LINE",
"400 500 LINE",
"400 498 LINE",
"46 20 LINE",
"46 0 LINE"
);
}
);
width = 472;
},
{
layerId = "9527F797-22C1-480E-A1FE-2CDBEBE1FD4C";
leftMetricsKey = "=h*.75";
paths = (
{
closed = 1;
nodes = (
"476 0 LINE",
"476 90 LINE",
"187 90 LINE",
"187 92 LINE",
"476 430 LINE",
"476 520 LINE",
"51 520 LINE",
"51 430 LINE",
"340 430 LINE",
"340 428 LINE",
"51 90 LINE",
"51 0 LINE"
);
}
);
width = 527;
},
{
layerId = "9E6B41AB-2970-4C41-8B35-4DBE0D296A43";
leftMetricsKey = "=h*.9";
paths = (
{
closed = 1;
nodes = (
"523 0 LINE",
"523 140 LINE",
"300 140 LINE",
"300 142 LINE",
"523 380 LINE",
"523 520 LINE",
"53 520 LINE",
"53 380 LINE",
"276 380 LINE",
"276 378 LINE",
"53 140 LINE",
"53 0 LINE"
);
}
);
width = 576;
}
);
leftKerningGroup = z;
leftMetricsKey = "=h*.9";
rightKerningGroup = z;
rightMetricsKey = "=|";
unicode = 007A;
},
{
glyphname = zero.lf;
lastChange = "2019-12-08 14:05:28 +0000";
layers = (
{
layerId = "D65C9A1E-0FCA-4B2D-8EDF-9F36CA9182A1";
paths = (
{
closed = 1;
nodes = (
"464 -10 OFFCURVE",
"550 120 OFFCURVE",
"550 365 CURVE SMOOTH",
"550 610 OFFCURVE",
"464 740 OFFCURVE",
"300 740 CURVE SMOOTH",
"136 740 OFFCURVE",
"50 610 OFFCURVE",
"50 365 CURVE SMOOTH",
"50 120 OFFCURVE",
"136 -10 OFFCURVE",
"300 -10 CURVE SMOOTH"
);
},
{
closed = 1;
nodes = (
"148 10 OFFCURVE",
"70 130 OFFCURVE",
"70 365 CURVE SMOOTH",
"70 600 OFFCURVE",
"148 720 OFFCURVE",
"300 720 CURVE SMOOTH",
"452 720 OFFCURVE",
"530 600 OFFCURVE",
"530 365 CURVE SMOOTH",
"530 130 OFFCURVE",
"452 10 OFFCURVE",
"300 10 CURVE SMOOTH"
);
}
);
width = 600;
},
{
layerId = "9E6B41AB-2970-4C41-8B35-4DBE0D296A43";
paths = (
{
closed = 1;
nodes = (
"538 -10 OFFCURVE",
"630 105 OFFCURVE",
"630 365 CURVE SMOOTH",
"630 625 OFFCURVE",
"538 740 OFFCURVE",
"330 740 CURVE SMOOTH",
"122 740 OFFCURVE",
"30 625 OFFCURVE",
"30 365 CURVE SMOOTH",
"30 105 OFFCURVE",
"122 -10 OFFCURVE",
"330 -10 CURVE SMOOTH"
);
},
{
closed = 1;
nodes = (
"261 160 OFFCURVE",
"235 217 OFFCURVE",
"235 365 CURVE SMOOTH",
"235 513 OFFCURVE",
"261 570 OFFCURVE",
"330 570 CURVE SMOOTH",
"399 570 OFFCURVE",
"425 513 OFFCURVE",
"425 365 CURVE SMOOTH",
"425 217 OFFCURVE",
"399 160 OFFCURVE",
"330 160 CURVE SMOOTH"
);
}
);
width = 660;
},
{
layerId = "9527F797-22C1-480E-A1FE-2CDBEBE1FD4C";
paths = (
{
closed = 1;
nodes = (
"501 -10 OFFCURVE",
"590 112 OFFCURVE",
"590 365 CURVE SMOOTH",
"590 618 OFFCURVE",
"501 740 OFFCURVE",
"315 740 CURVE SMOOTH",
"129 740 OFFCURVE",
"40 618 OFFCURVE",
"40 365 CURVE SMOOTH",
"40 112 OFFCURVE",
"129 -10 OFFCURVE",
"315 -10 CURVE SMOOTH"
);
},
{
closed = 1;
nodes = (
"204 90 OFFCURVE",
"153 177 OFFCURVE",
"153 365 CURVE SMOOTH",
"153 553 OFFCURVE",
"204 640 OFFCURVE",
"315 640 CURVE SMOOTH",
"426 640 OFFCURVE",
"477 553 OFFCURVE",
"477 365 CURVE SMOOTH",
"477 177 OFFCURVE",
"426 90 OFFCURVE",
"315 90 CURVE SMOOTH"
);
}
);
width = 630;
}
);
},
{
glyphname = one.lf;
lastChange = "2019-12-08 14:06:52 +0000";
layers = (
{
layerId = "D65C9A1E-0FCA-4B2D-8EDF-9F36CA9182A1";
paths = (
{
closed = 1;
nodes = (
"345 0 LINE",
"345 730 LINE",
"325 730 LINE",
"95 510 LINE",
"109 496 LINE",
"323 702 LINE",
"325 702 LINE",
"325 0 LINE"
);
}
);
width = 600;
},
{
layerId = "9E6B41AB-2970-4C41-8B35-4DBE0D296A43";
paths = (
{
closed = 1;
nodes = (
"490 0 LINE",
"490 730 LINE",
"280 730 LINE",
"54 515 LINE",
"136 351 LINE",
"278 485 LINE",
"280 485 LINE",
"280 0 LINE"
);
}
);
width = 660;
},
{
layerId = "9527F797-22C1-480E-A1FE-2CDBEBE1FD4C";
paths = (
{
closed = 1;
nodes = (
"413 0 LINE",
"413 730 LINE",
"298 730 LINE",
"68 511 LINE",
"123 422 LINE",
"296 588 LINE",
"298 588 LINE",
"298 0 LINE"
);
}
);
width = 630;
}
);
},
{
glyphname = two.lf;
lastChange = "2019-12-08 14:10:03 +0000";
layers = (
{
layerId = "D65C9A1E-0FCA-4B2D-8EDF-9F36CA9182A1";
paths = (
{
closed = 1;
nodes = (
"505 0 LINE",
"505 20 LINE",
"105 20 LINE",
"105 22 LINE",
"398 281 OFFCURVE",
"496 409 OFFCURVE",
"496 540 CURVE SMOOTH",
"496 660 OFFCURVE",
"414 740 OFFCURVE",
"290 740 CURVE SMOOTH",
"213 740 OFFCURVE",
"126 708 OFFCURVE",
"65 660 CURVE",
"77 644 LINE",
"134 690 OFFCURVE",
"217 720 OFFCURVE",
"290 720 CURVE SMOOTH",
"403 720 OFFCURVE",
"476 649 OFFCURVE",
"476 540 CURVE SMOOTH",
"476 414 OFFCURVE",
"377 286 OFFCURVE",
"75 20 CURVE",
"75 0 LINE"
);
}
);
width = 600;
},
{
layerId = "9E6B41AB-2970-4C41-8B35-4DBE0D296A43";
paths = (
{
closed = 1;
nodes = (
"590 0 LINE",
"590 165 LINE",
"340 165 LINE",
"340 167 LINE",
"502 276 OFFCURVE",
"585 395 OFFCURVE",
"585 520 CURVE SMOOTH",
"585 656 OFFCURVE",
"485 740 OFFCURVE",
"325 740 CURVE SMOOTH",
"225 740 OFFCURVE",
"118 708 OFFCURVE",
"50 660 CURVE",
"100 495 LINE",
"185 548 OFFCURVE",
"243 570 OFFCURVE",
"295 570 CURVE SMOOTH",
"350 570 OFFCURVE",
"380 545 OFFCURVE",
"380 500 CURVE SMOOTH",
"380 422 OFFCURVE",
"291 326 OFFCURVE",
"70 165 CURVE",
"70 0 LINE"
);
}
);
width = 660;
},
{
layerId = "9527F797-22C1-480E-A1FE-2CDBEBE1FD4C";
paths = (
{
closed = 1;
nodes = (
"548 0 LINE",
"548 100 LINE",
"233 100 LINE",
"233 102 LINE",
"452 282 OFFCURVE",
"541 406 OFFCURVE",
"541 530 CURVE SMOOTH",
"541 658 OFFCURVE",
"450 740 OFFCURVE",
"308 740 CURVE SMOOTH",
"218 740 OFFCURVE",
"120 708 OFFCURVE",
"56 659 CURVE",
"94 568 LINE",
"163 615 OFFCURVE",
"232 640 OFFCURVE",
"293 640 CURVE SMOOTH",
"376 640 OFFCURVE",
"428 594 OFFCURVE",
"428 520 CURVE SMOOTH",
"428 422 OFFCURVE",
"335 312 OFFCURVE",
"73 100 CURVE",
"73 0 LINE"
);
}
);
width = 630;
}
);
},
{
glyphname = three.lf;
lastChange = "2019-12-10 07:44:33 +0000";
layers = (
{
layerId = "D65C9A1E-0FCA-4B2D-8EDF-9F36CA9182A1";
paths = (
{
closed = 1;
nodes = (
"427 -10 OFFCURVE",
"510 65 OFFCURVE",
"510 205 CURVE SMOOTH",
"510 346 OFFCURVE",
"425 420 OFFCURVE",
"263 420 CURVE SMOOTH",
"211 420 LINE",
"211 422 LINE",
"500 710 LINE",
"500 730 LINE",
"85 730 LINE",
"85 710 LINE",
"471 710 LINE",
"471 708 LINE",
"183 420 LINE",
"183 400 LINE",
"263 400 LINE SMOOTH",
"414 400 OFFCURVE",
"490 334 OFFCURVE",
"490 205 CURVE SMOOTH",
"490 76 OFFCURVE",
"416 10 OFFCURVE",
"270 10 CURVE SMOOTH",
"202 10 OFFCURVE",
"151 24 OFFCURVE",
"89 61 CURVE",
"79 44 LINE",
"143 6 OFFCURVE",
"198 -10 OFFCURVE",
"270 -10 CURVE SMOOTH"
);
}
);
width = 600;
},
{
layerId = "9E6B41AB-2970-4C41-8B35-4DBE0D296A43";
paths = (
{
closed = 1;
nodes = (
"484 -10 OFFCURVE",
"585 77 OFFCURVE",
"585 230 CURVE SMOOTH",
"585 355 OFFCURVE",
"516 430 OFFCURVE",
"400 430 CURVE SMOOTH",
"390 430 LINE",
"390 432 LINE",
"575 565 LINE",
"575 730 LINE",
"70 730 LINE",
"70 565 LINE",
"341 565 LINE",
"341 563 LINE",
"170 440 LINE",
"170 295 LINE",
"210 295 LINE SMOOTH",
"341 295 OFFCURVE",
"380 279 OFFCURVE",
"380 225 CURVE SMOOTH",
"380 177 OFFCURVE",
"350 155 OFFCURVE",
"285 155 CURVE SMOOTH",
"230 155 OFFCURVE",
"178 170 OFFCURVE",
"104 207 CURVE",
"55 50 LINE",
"132 11 OFFCURVE",
"219 -10 OFFCURVE",
"305 -10 CURVE SMOOTH"
);
}
);
width = 660;
},
{
layerId = "9527F797-22C1-480E-A1FE-2CDBEBE1FD4C";
paths = (
{
closed = 1;
nodes = (
"453 -10 OFFCURVE",
"548 75 OFFCURVE",
"548 225 CURVE SMOOTH",
"548 362 OFFCURVE",
"472 435 OFFCURVE",
"332 435 CURVE SMOOTH",
"325 435 LINE",
"325 437 LINE",
"538 631 LINE",
"538 730 LINE",
"78 730 LINE",
"78 632 LINE",
"389 632 LINE",
"389 630 LINE",
"177 436 LINE",
"177 340 LINE",
"237 340 LINE SMOOTH",
"381 340 OFFCURVE",
"435 307 OFFCURVE",
"435 223 CURVE SMOOTH",
"435 135 OFFCURVE",
"379 88 OFFCURVE",
"273 88 CURVE SMOOTH",
"215 88 OFFCURVE",
"160 103 OFFCURVE",
"102 136 CURVE",
"65 49 LINE",
"130 10 OFFCURVE",
"202 -10 OFFCURVE",
"283 -10 CURVE SMOOTH"
);
}
);
width = 630;
},
{
associatedMasterId = "D65C9A1E-0FCA-4B2D-8EDF-9F36CA9182A1";
layerId = "1DC7DC31-B802-444B-8AE0-55C3E37ED151";
name = "Dec 10 19, 16:38";
paths = (
{
closed = 1;
nodes = (
"419 -10 OFFCURVE",
"510 74 OFFCURVE",
"510 220 CURVE SMOOTH",
"510 357 OFFCURVE",
"430 420 OFFCURVE",
"263 420 CURVE SMOOTH",
"211 420 LINE",
"211 422 LINE",
"500 710 LINE",
"500 730 LINE",
"85 730 LINE",
"85 710 LINE",
"471 710 LINE",
"471 708 LINE",
"183 420 LINE",
"183 400 LINE",
"263 400 LINE SMOOTH",
"420 400 OFFCURVE",
"490 345 OFFCURVE",
"490 220 CURVE SMOOTH",
"490 85 OFFCURVE",
"408 10 OFFCURVE",
"260 10 CURVE SMOOTH",
"193 10 OFFCURVE",
"140 26 OFFCURVE",
"91 61 CURVE",
"79 44 LINE",
"132 7 OFFCURVE",
"190 -10 OFFCURVE",
"260 -10 CURVE SMOOTH"
);
}
);
width = 600;
}
);
},
{
glyphname = four.lf;
lastChange = "2019-12-08 14:15:14 +0000";
layers = (
{
layerId = "D65C9A1E-0FCA-4B2D-8EDF-9F36CA9182A1";
paths = (
{
closed = 1;
nodes = (
"415 0 LINE",
"415 190 LINE",
"555 190 LINE",
"555 210 LINE",
"415 210 LINE",
"415 730 LINE",
"395 730 LINE",
"15 210 LINE",
"15 190 LINE",
"395 190 LINE",
"395 0 LINE"
);
},
{
closed = 1;
nodes = (
"40 212 LINE",
"393 696 LINE",
"395 696 LINE",
"395 210 LINE",
"40 210 LINE"
);
}
);
width = 600;
},
{
layerId = "9E6B41AB-2970-4C41-8B35-4DBE0D296A43";
paths = (
{
closed = 1;
nodes = (
"535 0 LINE",
"535 120 LINE",
"625 120 LINE",
"625 285 LINE",
"535 285 LINE",
"535 730 LINE",
"335 730 LINE",
"15 285 LINE",
"15 120 LINE",
"335 120 LINE",
"335 0 LINE"
);
},
{
closed = 1;
nodes = (
"196 277 LINE",
"343 483 LINE",
"345 483 LINE",
"345 275 LINE",
"196 275 LINE"
);
}
);
width = 660;
},
{
layerId = "9527F797-22C1-480E-A1FE-2CDBEBE1FD4C";
paths = (
{
closed = 1;
nodes = (
"475 0 LINE",
"475 153 LINE",
"590 153 LINE",
"590 253 LINE",
"475 253 LINE",
"475 730 LINE",
"365 730 LINE",
"15 253 LINE",
"15 153 LINE",
"365 153 LINE",
"365 0 LINE"
);
},
{
closed = 1;
nodes = (
"145 255 LINE",
"363 553 LINE",
"365 553 LINE",
"365 253 LINE",
"145 253 LINE"
);
}
);
width = 630;
}
);
},
{
glyphname = five.lf;
lastChange = "2019-12-08 14:25:39 +0000";
layers = (
{
layerId = "D65C9A1E-0FCA-4B2D-8EDF-9F36CA9182A1";
paths = (
{
closed = 1;
nodes = (
"420 -10 OFFCURVE",
"515 83 OFFCURVE",
"515 230 CURVE SMOOTH",
"515 368 OFFCURVE",
"430 445 OFFCURVE",
"280 445 CURVE SMOOTH",
"219 445 OFFCURVE",
"175 432 OFFCURVE",
"129 400 CURVE",
"127 400 LINE",
"150 710 LINE",
"485 710 LINE",
"485 730 LINE",
"131 730 LINE",
"105 375 LINE",
"126 375 LINE",
"173 411 OFFCURVE",
"217 425 OFFCURVE",
"280 425 CURVE SMOOTH",
"419 425 OFFCURVE",
"495 357 OFFCURVE",
"495 230 CURVE SMOOTH",
"495 94 OFFCURVE",
"409 10 OFFCURVE",
"270 10 CURVE SMOOTH",
"206 10 OFFCURVE",
"145 28 OFFCURVE",
"96 62 CURVE",
"85 45 LINE",
"136 10 OFFCURVE",
"203 -10 OFFCURVE",
"270 -10 CURVE SMOOTH"
);
}
);
width = 600;
},
{
layerId = "9E6B41AB-2970-4C41-8B35-4DBE0D296A43";
paths = (
{
closed = 1;
nodes = (
"497 -10 OFFCURVE",
"603 74 OFFCURVE",
"603 245 CURVE SMOOTH",
"603 397 OFFCURVE",
"518 480 OFFCURVE",
"363 480 CURVE SMOOTH",
"330 480 OFFCURVE",
"309 476 OFFCURVE",
"282 465 CURVE",
"280 465 LINE",
"283 565 LINE",
"568 565 LINE",
"568 730 LINE",
"103 730 LINE",
"83 290 LINE",
"263 290 LINE",
"292 316 OFFCURVE",
"312 325 OFFCURVE",
"338 325 CURVE SMOOTH",
"379 325 OFFCURVE",
"398 302 OFFCURVE",
"398 255 CURVE SMOOTH",
"398 187 OFFCURVE",
"358 155 OFFCURVE",
"273 155 CURVE SMOOTH",
"220 155 OFFCURVE",
"170 167 OFFCURVE",
"103 194 CURVE",
"63 30 LINE",
"134 3 OFFCURVE",
"206 -10 OFFCURVE",
"283 -10 CURVE SMOOTH"
);
}
);
width = 660;
},
{
layerId = "9527F797-22C1-480E-A1FE-2CDBEBE1FD4C";
paths = (
{
closed = 1;
nodes = (
"454 -10 OFFCURVE",
"559 83 OFFCURVE",
"559 240 CURVE SMOOTH",
"559 385 OFFCURVE",
"473 468 OFFCURVE",
"322 468 CURVE SMOOTH",
"275 468 OFFCURVE",
"244 460 OFFCURVE",
"206 438 CURVE",
"204 438 LINE",
"217 632 LINE",
"527 632 LINE",
"527 730 LINE",
"117 730 LINE",
"94 330 LINE",
"189 330 LINE",
"228 361 OFFCURVE",
"261 373 OFFCURVE",
"307 373 CURVE SMOOTH",
"397 373 OFFCURVE",
"446 326 OFFCURVE",
"446 240 CURVE SMOOTH",
"446 143 OFFCURVE",
"383 88 OFFCURVE",
"272 88 CURVE SMOOTH",
"215 88 OFFCURVE",
"160 102 OFFCURVE",
"104 130 CURVE",
"72 39 LINE",
"135 6 OFFCURVE",
"203 -10 OFFCURVE",
"277 -10 CURVE SMOOTH"
);
}
);
width = 630;
}
);
},
{
glyphname = six.lf;
lastChange = "2019-12-08 14:35:45 +0000";
layers = (
{
layerId = "D65C9A1E-0FCA-4B2D-8EDF-9F36CA9182A1";
paths = (
{
closed = 1;
nodes = (
"451 -10 OFFCURVE",
"545 84 OFFCURVE",
"545 235 CURVE SMOOTH",
"545 386 OFFCURVE",
"451 480 OFFCURVE",
"300 480 CURVE SMOOTH",
"202 480 OFFCURVE",
"127 440 OFFCURVE",
"86 366 CURVE",
"84 366 LINE",
"118 567 OFFCURVE",
"233 694 OFFCURVE",
"402 720 CURVE",
"398 740 LINE",
"183 708 OFFCURVE",
"55 519 OFFCURVE",
"55 235 CURVE SMOOTH",
"55 89 OFFCURVE",
"154 -10 OFFCURVE",
"300 -10 CURVE SMOOTH"
);
},
{
closed = 1;
nodes = (
"164 10 OFFCURVE",
"75 99 OFFCURVE",
"75 235 CURVE SMOOTH",
"75 376 OFFCURVE",
"159 460 OFFCURVE",
"300 460 CURVE SMOOTH",
"441 460 OFFCURVE",
"525 376 OFFCURVE",
"525 235 CURVE SMOOTH",
"525 94 OFFCURVE",
"441 10 OFFCURVE",
"300 10 CURVE SMOOTH"
);
}
);
width = 600;
},
{
layerId = "9E6B41AB-2970-4C41-8B35-4DBE0D296A43";
paths = (
{
closed = 1;
nodes = (
"510 -10 OFFCURVE",
"620 89 OFFCURVE",
"620 250 CURVE SMOOTH",
"620 399 OFFCURVE",
"529 490 OFFCURVE",
"380 490 CURVE SMOOTH",
"338 490 OFFCURVE",
"305 483 OFFCURVE",
"265 464 CURVE",
"263 466 LINE",
"301 539 OFFCURVE",
"371 573 OFFCURVE",
"506 578 CURVE",
"470 738 LINE",
"209 724 OFFCURVE",
"40 546 OFFCURVE",
"40 280 CURVE SMOOTH",
"40 84 OFFCURVE",
"134 -10 OFFCURVE",
"330 -10 CURVE SMOOTH"
);
},
{
closed = 1;
nodes = (
"273 145 OFFCURVE",
"240 181 OFFCURVE",
"240 245 CURVE SMOOTH",
"240 309 OFFCURVE",
"273 345 OFFCURVE",
"330 345 CURVE SMOOTH",
"387 345 OFFCURVE",
"420 309 OFFCURVE",
"420 245 CURVE SMOOTH",
"420 181 OFFCURVE",
"387 145 OFFCURVE",
"330 145 CURVE SMOOTH"
);
}
);
width = 660;
},
{
layerId = "9527F797-22C1-480E-A1FE-2CDBEBE1FD4C";
paths = (
{
closed = 1;
nodes = (
"481 -10 OFFCURVE",
"583 87 OFFCURVE",
"583 243 CURVE SMOOTH",
"583 396 OFFCURVE",
"490 490 OFFCURVE",
"340 490 CURVE SMOOTH",
"277 490 OFFCURVE",
"225 473 OFFCURVE",
"179 437 CURVE",
"177 438 LINE",
"218 559 OFFCURVE",
"311 628 OFFCURVE",
"455 644 CURVE",
"435 739 LINE",
"197 716 OFFCURVE",
"48 533 OFFCURVE",
"48 258 CURVE SMOOTH",
"48 87 OFFCURVE",
"144 -10 OFFCURVE",
"315 -10 CURVE SMOOTH"
);
},
{
closed = 1;
nodes = (
"215 88 OFFCURVE",
"158 147 OFFCURVE",
"158 242 CURVE SMOOTH",
"158 340 OFFCURVE",
"215 395 OFFCURVE",
"315 395 CURVE SMOOTH",
"415 395 OFFCURVE",
"473 339 OFFCURVE",
"473 242 CURVE SMOOTH",
"473 147 OFFCURVE",
"415 88 OFFCURVE",
"315 88 CURVE SMOOTH"
);
}
);
width = 630;
},
{
associatedMasterId = "D65C9A1E-0FCA-4B2D-8EDF-9F36CA9182A1";
layerId = "0745D49E-A009-43C8-8130-02A8F62E6585";
name = "Light {200}";
paths = (
{
closed = 1;
nodes = (
"461 -10 OFFCURVE",
"558 85 OFFCURVE",
"558 238 CURVE SMOOTH",
"558 389 OFFCURVE",
"464 483 OFFCURVE",
"313 483 CURVE SMOOTH",
"228 483 OFFCURVE",
"163 454 OFFCURVE",
"118 400 CURVE",
"116 401 LINE",
"155 569 OFFCURVE",
"261 672 OFFCURVE",
"419 695 CURVE",
"410 739 LINE",
"188 711 OFFCURVE",
"53 524 OFFCURVE",
"53 243 CURVE SMOOTH",
"53 88 OFFCURVE",
"151 -10 OFFCURVE",
"305 -10 CURVE SMOOTH"
);
},
{
closed = 1;
nodes = (
"181 36 OFFCURVE",
"103 115 OFFCURVE",
"103 237 CURVE SMOOTH",
"103 364 OFFCURVE",
"178 438 OFFCURVE",
"305 438 CURVE SMOOTH",
"432 438 OFFCURVE",
"508 364 OFFCURVE",
"508 237 CURVE SMOOTH",
"508 112 OFFCURVE",
"432 36 OFFCURVE",
"305 36 CURVE SMOOTH"
);
}
);
width = 610;
}
);
},
{
glyphname = seven.lf;
lastChange = "2019-12-08 14:43:45 +0000";
layers = (
{
layerId = "D65C9A1E-0FCA-4B2D-8EDF-9F36CA9182A1";
paths = (
{
closed = 1;
nodes = (
"216 0 LINE",
"304 277 OFFCURVE",
"407 514 OFFCURVE",
"525 710 CURVE",
"525 730 LINE",
"75 730 LINE",
"75 710 LINE",
"502 710 LINE",
"502 708 LINE",
"385 511 OFFCURVE",
"282 274 OFFCURVE",
"195 0 CURVE"
);
}
);
width = 600;
},
{
background = {
paths = (
{
closed = 0;
nodes = (
"144 31 LINE",
"233 297 OFFCURVE",
"309 473 OFFCURVE",
"422 671 CURVE"
);
}
);
};
layerId = "9E6B41AB-2970-4C41-8B35-4DBE0D296A43";
paths = (
{
closed = 1;
nodes = (
"349 0 LINE",
"422 230 OFFCURVE",
"491 385 OFFCURVE",
"600 570 CURVE",
"600 730 LINE",
"70 730 LINE",
"70 560 LINE",
"364 560 LINE",
"364 555 LINE",
"268 382 OFFCURVE",
"191 200 OFFCURVE",
"129 0 CURVE"
);
}
);
width = 660;
},
{
layerId = "9527F797-22C1-480E-A1FE-2CDBEBE1FD4C";
paths = (
{
closed = 1;
nodes = (
"278 0 LINE",
"364 258 OFFCURVE",
"451 453 OFFCURVE",
"563 640 CURVE",
"563 730 LINE",
"73 730 LINE",
"73 630 LINE",
"442 630 LINE",
"442 628 LINE",
"332 441 OFFCURVE",
"239 234 OFFCURVE",
"159 0 CURVE"
);
}
);
width = 630;
}
);
},
{
glyphname = eight.lf;
lastChange = "2019-12-08 14:55:54 +0000";
layers = (
{
layerId = "D65C9A1E-0FCA-4B2D-8EDF-9F36CA9182A1";
paths = (
{
closed = 1;
nodes = (
"453 -10 OFFCURVE",
"550 68 OFFCURVE",
"550 190 CURVE SMOOTH",
"550 293 OFFCURVE",
"483 359 OFFCURVE",
"352 390 CURVE",
"352 392 LINE",
"456 421 OFFCURVE",
"521 488 OFFCURVE",
"521 575 CURVE SMOOTH",
"521 676 OFFCURVE",
"434 740 OFFCURVE",
"300 740 CURVE SMOOTH",
"166 740 OFFCURVE",
"79 676 OFFCURVE",
"79 575 CURVE SMOOTH",
"79 489 OFFCURVE",
"144 421 OFFCURVE",
"249 392 CURVE",
"249 390 LINE",
"117 359 OFFCURVE",
"50 292 OFFCURVE",
"50 190 CURVE SMOOTH",
"50 67 OFFCURVE",
"147 -10 OFFCURVE",
"300 -10 CURVE SMOOTH"
);
},
{
closed = 1;
nodes = (
"157 10 OFFCURVE",
"70 79 OFFCURVE",
"70 190 CURVE SMOOTH",
"70 293 OFFCURVE",
"147 357 OFFCURVE",
"300 380 CURVE",
"453 358 OFFCURVE",
"530 294 OFFCURVE",
"530 190 CURVE SMOOTH",
"530 79 OFFCURVE",
"442 10 OFFCURVE",
"300 10 CURVE SMOOTH"
);
},
{
closed = 1;
nodes = (
"177 418 OFFCURVE",
"99 486 OFFCURVE",
"99 575 CURVE SMOOTH",
"99 664 OFFCURVE",
"176 720 OFFCURVE",
"300 720 CURVE SMOOTH",
"424 720 OFFCURVE",
"501 664 OFFCURVE",
"501 575 CURVE SMOOTH",
"501 486 OFFCURVE",
"422 417 OFFCURVE",
"300 400 CURVE"
);
}
);
width = 600;
},
{
layerId = "9E6B41AB-2970-4C41-8B35-4DBE0D296A43";
paths = (
{
closed = 1;
nodes = (
"519 -10 OFFCURVE",
"630 67 OFFCURVE",
"630 200 CURVE SMOOTH",
"630 283 OFFCURVE",
"587 347 OFFCURVE",
"503 390 CURVE",
"503 392 LINE",
"577 440 OFFCURVE",
"610 489 OFFCURVE",
"610 550 CURVE SMOOTH",
"610 664 OFFCURVE",
"498 740 OFFCURVE",
"330 740 CURVE SMOOTH",
"159 740 OFFCURVE",
"50 666 OFFCURVE",
"50 550 CURVE SMOOTH",
"50 483 OFFCURVE",
"87 415 OFFCURVE",
"149 368 CURVE",
"149 366 LINE",
"65 320 OFFCURVE",
"30 271 OFFCURVE",
"30 200 CURVE SMOOTH",
"30 70 OFFCURVE",
"144 -10 OFFCURVE",
"330 -10 CURVE SMOOTH"
);
},
{
closed = 1;
nodes = (
"273 140 OFFCURVE",
"235 168 OFFCURVE",
"235 210 CURVE SMOOTH",
"235 245 OFFCURVE",
"261 280 OFFCURVE",
"307 306 CURVE",
"394 274 OFFCURVE",
"425 248 OFFCURVE",
"425 210 CURVE SMOOTH",
"425 168 OFFCURVE",
"387 140 OFFCURVE",
"330 140 CURVE SMOOTH"
);
},
{
closed = 1;
nodes = (
"276 471 OFFCURVE",
"250 494 OFFCURVE",
"250 530 CURVE SMOOTH",
"250 568 OFFCURVE",
"279 590 OFFCURVE",
"330 590 CURVE SMOOTH",
"381 590 OFFCURVE",
"410 568 OFFCURVE",
"410 530 CURVE SMOOTH",
"410 497 OFFCURVE",
"389 472 OFFCURVE",
"340 447 CURVE"
);
}
);
width = 660;
},
{
layerId = "9527F797-22C1-480E-A1FE-2CDBEBE1FD4C";
paths = (
{
closed = 1;
nodes = (
"486 -10 OFFCURVE",
"590 68 OFFCURVE",
"590 195 CURVE SMOOTH",
"590 288 OFFCURVE",
"535 353 OFFCURVE",
"428 390 CURVE",
"428 392 LINE",
"517 431 OFFCURVE",
"566 489 OFFCURVE",
"566 563 CURVE SMOOTH",
"566 670 OFFCURVE",
"466 740 OFFCURVE",
"315 740 CURVE SMOOTH",
"163 740 OFFCURVE",
"65 671 OFFCURVE",
"65 563 CURVE SMOOTH",
"65 486 OFFCURVE",
"116 418 OFFCURVE",
"199 380 CURVE",
"199 378 LINE",
"91 340 OFFCURVE",
"40 282 OFFCURVE",
"40 195 CURVE SMOOTH",
"40 69 OFFCURVE",
"146 -10 OFFCURVE",
"315 -10 CURVE SMOOTH"
);
},
{
closed = 1;
nodes = (
"214 85 OFFCURVE",
"153 128 OFFCURVE",
"153 200 CURVE SMOOTH",
"153 266 OFFCURVE",
"206 315 OFFCURVE",
"303 340 CURVE",
"421 314 OFFCURVE",
"477 269 OFFCURVE",
"477 200 CURVE SMOOTH",
"477 128 OFFCURVE",
"416 85 OFFCURVE",
"315 85 CURVE SMOOTH"
);
},
{
closed = 1;
nodes = (
"228 448 OFFCURVE",
"175 494 OFFCURVE",
"175 553 CURVE SMOOTH",
"175 611 OFFCURVE",
"227 645 OFFCURVE",
"315 645 CURVE SMOOTH",
"403 645 OFFCURVE",
"455 611 OFFCURVE",
"455 553 CURVE SMOOTH",
"455 495 OFFCURVE",
"404 448 OFFCURVE",
"320 427 CURVE"
);
}
);
width = 630;
},
{
associatedMasterId = "9E6B41AB-2970-4C41-8B35-4DBE0D296A43";
layerId = "707D532F-07D0-4B87-BE8C-5F99C87FCC9F";
name = "Dec 8 19, 23:53";
paths = (
{
closed = 1;
nodes = (
"519 -10 OFFCURVE",
"630 67 OFFCURVE",
"630 200 CURVE SMOOTH",
"630 283 OFFCURVE",
"587 347 OFFCURVE",
"503 390 CURVE",
"503 392 LINE",
"577 440 OFFCURVE",
"610 489 OFFCURVE",
"610 550 CURVE SMOOTH",
"610 664 OFFCURVE",
"498 740 OFFCURVE",
"330 740 CURVE SMOOTH",
"159 740 OFFCURVE",
"50 666 OFFCURVE",
"50 550 CURVE SMOOTH",
"50 483 OFFCURVE",
"87 415 OFFCURVE",
"149 368 CURVE",
"149 366 LINE",
"65 320 OFFCURVE",
"30 271 OFFCURVE",
"30 200 CURVE SMOOTH",
"30 70 OFFCURVE",
"144 -10 OFFCURVE",
"330 -10 CURVE SMOOTH"
);
},
{
closed = 1;
nodes = (
"270 135 OFFCURVE",
"230 165 OFFCURVE",
"230 210 CURVE SMOOTH",
"230 247 OFFCURVE",
"257 283 OFFCURVE",
"307 311 CURVE",
"397 277 OFFCURVE",
"430 250 OFFCURVE",
"430 210 CURVE SMOOTH",
"430 165 OFFCURVE",
"390 135 OFFCURVE",
"330 135 CURVE SMOOTH"
);
},
{
closed = 1;
nodes = (
"272 467 OFFCURVE",
"245 492 OFFCURVE",
"245 530 CURVE SMOOTH",
"245 571 OFFCURVE",
"276 595 OFFCURVE",
"330 595 CURVE SMOOTH",
"384 595 OFFCURVE",
"415 571 OFFCURVE",
"415 530 CURVE SMOOTH",
"415 495 OFFCURVE",
"392 468 OFFCURVE",
"340 442 CURVE"
);
}
);
width = 660;
}
);
},
{
glyphname = period;
lastChange = "2019-12-16 17:52:46 +0000";
layers = (
{
layerId = "D65C9A1E-0FCA-4B2D-8EDF-9F36CA9182A1";
paths = (
{
closed = 1;
nodes = (
"154 0 LINE",
"154 60 LINE",
"94 60 LINE",
"94 0 LINE"
);
}
);
width = 248;
},
{
layerId = "9527F797-22C1-480E-A1FE-2CDBEBE1FD4C";
paths = (
{
closed = 1;
nodes = (
"213 0 LINE",
"213 130 LINE",
"83 130 LINE",
"83 0 LINE"
);
}
);
width = 296;
},
{
layerId = "9E6B41AB-2970-4C41-8B35-4DBE0D296A43";
paths = (
{
closed = 1;
nodes = (
"272 0 LINE",
"272 200 LINE",
"72 200 LINE",
"72 0 LINE"
);
}
);
width = 344;
}
);
leftKerningGroup = .;
leftMetricsKey = "=I";
rightKerningGroup = .;
rightMetricsKey = "=|";
unicode = 002E;
},
{
glyphname = comma;
lastChange = "2019-12-16 17:37:19 +0000";
layers = (
{
layerId = "D65C9A1E-0FCA-4B2D-8EDF-9F36CA9182A1";
rightMetricsKey = "=|*2";
paths = (
{
closed = 1;
nodes = (
"49 -150 LINE",
"129 90 LINE",
"108 90 LINE",
"28 -150 LINE"
);
}
);
width = 185;
},
{
layerId = "9527F797-22C1-480E-A1FE-2CDBEBE1FD4C";
rightMetricsKey = "=|*1.5";
paths = (
{
closed = 1;
nodes = (
"117 -150 LINE",
"217 130 LINE",
"95 130 LINE",
"25 -150 LINE"
);
}
);
width = 255;
},
{
layerId = "9E6B41AB-2970-4C41-8B35-4DBE0D296A43";
rightMetricsKey = "=|";
paths = (
{
closed = 1;
nodes = (
"182 -120 LINE",
"302 200 LINE",
"82 200 LINE",
"22 -120 LINE"
);
}
);
width = 324;
}
);
leftKerningGroup = .;
leftMetricsKey = "=period*.3";
rightKerningGroup = .;
rightMetricsKey = "=|";
unicode = 002C;
},
{
glyphname = hyphen;
lastChange = "2019-12-16 17:54:00 +0000";
layers = (
{
layerId = "D65C9A1E-0FCA-4B2D-8EDF-9F36CA9182A1";
paths = (
{
closed = 1;
nodes = (
"326 280 LINE",
"326 300 LINE",
"56 300 LINE",
"56 280 LINE"
);
}
);
width = 382;
},
{
layerId = "9527F797-22C1-480E-A1FE-2CDBEBE1FD4C";
paths = (
{
closed = 1;
nodes = (
"360 245 LINE",
"360 335 LINE",
"50 335 LINE",
"50 245 LINE"
);
}
);
width = 410;
},
{
layerId = "9E6B41AB-2970-4C41-8B35-4DBE0D296A43";
paths = (
{
closed = 1;
nodes = (
"393 210 LINE",
"393 370 LINE",
"43 370 LINE",
"43 210 LINE"
);
}
);
width = 436;
}
);
leftKerningGroup = "-";
leftMetricsKey = "=period*.6";
rightKerningGroup = "-";
rightMetricsKey = "=|";
unicode = 002D;
},
{
glyphname = plus;
lastChange = "2019-12-16 06:36:38 +0000";
layers = (
{
layerId = "D65C9A1E-0FCA-4B2D-8EDF-9F36CA9182A1";
paths = (
{
closed = 1;
nodes = (
"356 0 LINE",
"356 280 LINE",
"636 280 LINE",
"636 300 LINE",
"356 300 LINE",
"356 580 LINE",
"336 580 LINE",
"336 300 LINE",
"56 300 LINE",
"56 280 LINE",
"336 280 LINE",
"336 0 LINE"
);
}
